<?xml version="1.0" encoding="UTF-8"?><svg id="a" xmlns="http://www.w3.org/2000/svg" viewBox="0 0 1000 1000"><defs><style>.b{fill:#f0f0f0;}.c{fill:#52321f;}.d{fill:#344498;}.e{fill:#e6e6e6;}.f{fill:#408341;}.g{fill:#3c2415;}.h{fill:#f1f2f2;}.i{fill:#dcdcdc;}.j{fill:#d1d3d4;}.k{fill:#4d2c1b;}</style></defs><g><rect class="g" x="678.61019" y="299.39672" width="4" height="30" transform="translate(511.98178 -416.10994) rotate(52.20786)"/><polygon class="j" points="679.77076 304.03417 693.85755 304.12393 689.49963 318.51681 679.77076 304.03417"/><polygon class="i" points="681.73768 302.5089 691.31024 317.11277 695.82446 302.59867 681.73768 302.5089"/><polygon class="e" points="685.2207 300.94825 694.55409 312.98419 699.26769 298.5658 685.2207 300.94825"/><polygon class="b" points="687.92502 299.35176 696.77357 310.76247 701.37626 298.05707 687.92502 299.35176"/><polygon class="e" points="690.98045 297.72387 700.02745 307.49775 703.81862 296.16312 690.98045 297.72387"/><polygon class="b" points="694.68427 295.4035 701.96438 305.91675 707.58107 293.46992 694.68427 295.4035"/></g><g><rect class="k" x="661.99952" y="284.22112" width="4" height="30" transform="translate(407.21557 -382.31438) rotate(45.09699)"/><polygon class="e" points="660.18703 291.33358 673.18085 302.95875 673.66155 288.67171 660.18703 291.33358"/><polygon class="i" points="662.82173 289.10856 675.26694 301.59598 678.0346 287.29904 662.82173 289.10856"/><polygon class="j" points="666.1353 286.9693 678.67782 285.03016 677.46402 298.04443 666.1353 286.9693"/><polygon class="e" points="667.83927 285.27109 678.66882 294.72465 680.67225 281.74368 667.83927 285.27109"/><polygon class="b" points="670.60692 282.89737 680.91528 291.71334 682.51576 279.48243 670.60692 282.89737"/></g><g><rect class="g" x="627.70059" y="259.76879" width="4" height="30" transform="translate(302.35742 -329.27357) rotate(37.97184)"/><polygon class="j" points="626.33862 264.93089 640.01488 261.55372 639.33025 276.5763 626.33862 264.93089"/><polygon class="i" points="627.87004 262.96877 640.73997 274.77011 641.54631 259.5916 627.87004 262.96877"/><polygon class="e" points="630.86231 260.5995 642.86893 269.9706 643.89205 254.83583 630.86231 260.5995"/><polygon class="b" points="633.09099 258.38701 644.47388 267.2713 645.81076 253.82419 633.09099 258.38701"/><polygon class="e" points="635.65226 256.05772 646.82499 263.30665 647.71236 251.38778 635.65226 256.05772"/><polygon class="b" points="638.67171 252.89778 648.31365 261.29788 650.69697 247.85204 638.67171 252.89778"/></g><g><rect class="c" x="645.03303" y="269.73845" width="4" height="30" transform="translate(312.16054 -337.82733) rotate(37.97184)"/><polygon class="i" points="643.67106 274.90054 657.34732 271.52337 656.66269 286.54595 643.67106 274.90054"/><polygon class="j" points="645.20248 272.93842 658.07241 284.73976 658.87875 269.56125 645.20248 272.93842"/><polygon class="i" points="648.19475 270.56916 660.20137 279.94025 661.22449 264.80548 648.19475 270.56916"/><polygon class="h" points="650.42343 268.35666 661.80632 277.24095 663.1432 263.79384 650.42343 268.35666"/><polygon class="e" points="652.9847 266.02738 664.15743 273.2763 665.0448 261.35744 652.9847 266.02738"/><polygon class="h" points="656.00415 262.86743 665.64609 271.26754 668.02941 257.82169 656.00415 262.86743"/></g><circle class="b" cx="500" cy="500" r="250"/><path class="e" d="m683.3269,330.06299c-20.47479-22.07465-44.87915-40.45349-72.11285-54.00458-21.33521,2.95154-43.86609,5.33484-67.46753,6.94385,10.19061,7.11682,18.29987,13.91229,24.54633,19.63086,21.91333,20.0614,25.25714,30.70923,47.64124,48.63062,2.89728,2.31964,6.49988,5.19476,10.70496,8.27917,4.50543-18.85901,38.55914-26.63281,56.68787-29.47992Z"/><path class="d" d="m695.61536,431.15381c-17.84808-10.57208-75.40344-44.66431-68.97809-71.60437.00055-.0022.00122-.00433.00177-.00653-4.20508-3.08441-7.80768-5.95953-10.70496-8.27917-22.38409-17.92139-25.72791-28.56921-47.64124-48.63062-6.24646-5.71857-14.35571-12.51404-24.54633-19.63086-9.45282.64447-19.06006,1.17712-28.8576,1.55328-48.90088,1.87756-94.00391-.07776-134.51562-4.12372-77.6767,42.41028-130.37329,124.83313-130.37329,219.56818,0,80.47034,38.02917,152.04901,97.08527,197.77637,21.26917-2.34003,36.99939-1.29059,48.91473,1.22363,10.92548,2.30536,39.75989,10.29492,68.88892-2.22223,16.43188-7.06104,19.80432-14.99554,34.44446-20,30.3985-10.39124,61.96588,8.05652,72.22217,13.33331,15.25385,7.84802,37.31934,14.31152,70.53406,15.58997,65.19379-45.11871,107.9104-120.41547,107.9104-205.70105,0-15.69257-1.44861-31.04602-4.21527-45.93622-13.56946-4.53699-31.16125-11.6507-50.16937-22.90997Z"/><path class="f" d="m721.92493,384.80261c11.16113,21.45264,19.30139,44.72748,23.8598,69.26117-13.56946-4.53699-31.16125-11.6507-50.16937-22.90997-17.84808-10.57208-75.40344-44.66431-68.97809-71.60437.00055-.0022.00122-.00433.00177-.00653,4.50543-18.85901,38.55914-26.63281,56.68787-29.47992,15.17926,16.3653,28.20245,34.75836,38.59802,54.73962Z"/><g><rect class="g" x="600.392" y="265.67013" width="4" height="26.82747" transform="translate(330.60625 -326.6359) rotate(40.97633)"/><polygon class="j" points="599.15593 269.5373 612.22228 267.76598 611.60162 281.75289 599.15593 269.5373"/><polygon class="i" points="600.61549 267.85687 612.94519 280.206 613.68183 266.08555 600.61549 267.85687"/><polygon class="e" points="603.47064 265.94381 614.96958 275.93134 615.91356 261.87382 603.47064 265.94381"/><polygon class="b" points="605.59618 264.0999 616.49777 273.5686 617.74549 261.12207 605.59618 264.0999"/><polygon class="e" points="608.03941 262.18048 618.73641 270.09766 619.55785 259.03544 608.03941 262.18048"/><polygon class="b" points="610.91877 259.53035 620.15497 268.36924 622.40305 256.03014 610.91877 259.53035"/></g><g><rect class="g" x="636.19071" y="291.07259" width="4" height="30" transform="translate(443.8629 -374.51871) rotate(48.44237)"/><polygon class="j" points="636.67256 295.78753 650.73483 294.95198 647.33155 309.59999 636.67256 295.78753"/><polygon class="i" points="638.53506 294.13639 649.04603 308.08007 652.59733 293.30084 638.53506 294.13639"/><polygon class="e" points="641.90807 292.35036 652.01175 303.74737 655.76827 289.05055 641.90807 292.35036"/><polygon class="b" points="644.50171 290.57972 654.08053 301.38469 657.83888 288.40444 644.50171 290.57972"/><polygon class="e" points="647.44363 288.75468 657.11298 297.91332 660.15159 286.35418 647.44363 288.75468"/><polygon class="b" points="650.98707 286.19608 658.9419 296.20854 663.72905 283.41971 650.98707 286.19608"/></g><g><rect class="k" x="613.22641" y="278.97505" width="4" height="30" transform="translate(389.15602 -349.31107) rotate(45.09699)"/><polygon class="e" points="611.41392 286.08751 624.40774 297.71268 624.88844 283.42564 611.41392 286.08751"/><polygon class="i" points="614.04862 283.86249 626.49383 296.34991 629.26149 282.05297 614.04862 283.86249"/><polygon class="j" points="617.36219 281.72323 629.90471 279.78409 628.69091 292.79836 617.36219 281.72323"/><polygon class="e" points="619.06616 280.02502 629.89571 289.47858 631.89914 276.49761 619.06616 280.02502"/><polygon class="b" points="621.83381 277.65131 632.14217 286.46727 633.74265 274.23637 621.83381 277.65131"/></g><g><polygon class="c" points="666.43832 319.79537 664.10525 316.54671 641.19251 332.82474 643.52559 336.07334 666.43832 319.79537"/><polygon class="i" points="666.61887 317.21405 653.08234 316.15594 662.32873 330.93679 666.61887 317.21405"/><polygon class="j" points="668.51985 315.86347 654.98338 314.80537 664.07867 329.69357 668.51985 315.86347"/><polygon class="i" points="658.34157 313.52483 667.22528 325.89465 671.85738 312.17153 658.34157 313.52483"/><polygon class="h" points="660.95172 312.15572 669.37393 323.88294 673.88729 311.82116 660.95172 312.15572"/><polygon class="e" points="663.89948 310.78019 672.52404 320.92632 676.2478 310.14417 663.89948 310.78019"/><polygon class="h" points="667.47526 308.77465 674.39663 319.51942 679.88258 307.77943 667.47526 308.77465"/></g><polygon class="h" points="491.15385 299.72253 537.57143 295.3544 569.21978 328.31607 583.46154 351.9011 564.47253 374.58242 512.25275 367.1978 518.05495 337.65934 491.15385 299.72253"/><polygon class="h" points="444.73626 297.1921 470.05495 307.63863 444.73626 330.06299 415.1978 317.38228 376.69231 313.32921 395.68132 292.94181 444.73626 297.1921"/><g><polygon class="c" points="628.68666 298.90744 625.89726 296.0516 605.88298 314.48707 608.67238 317.34286 628.68666 298.90744"/><polygon class="i" points="628.46864 296.39569 615.00943 296.98886 626.35626 310.14569 628.46864 296.39569"/><polygon class="j" points="630.12914 294.86611 616.66999 295.45929 627.88482 308.73769 630.12914 294.86611"/><polygon class="i" points="619.77265 293.82355 630.39392 304.69766 632.84217 290.90652 619.77265 293.82355"/><polygon class="h" points="622.12693 292.19154 632.19645 302.50076 634.78251 290.3265 622.12693 292.19154"/><polygon class="e" points="624.81189 290.51309 634.838 299.27289 636.84442 288.42724 624.81189 290.51309"/><polygon class="h" points="628.01725 288.15199 636.46197 297.69237 640.05272 285.71257 628.01725 288.15199"/></g><g><rect class="g" x="625.39546" y="314.85128" width="4" height="27.56576" transform="translate(457.11152 -358.84591) rotate(48.44237)"/><polygon class="j" points="625.53202 318.65521 638.92173 318.4159 636.26307 332.40379 625.53202 318.65521"/><polygon class="i" points="627.2434 317.13804 637.83844 331.00719 640.63311 316.89873 627.2434 317.13804"/><polygon class="e" points="630.39122 315.55165 640.4949 326.94866 643.48879 312.92793 630.39122 315.55165"/><polygon class="b" points="632.79571 313.9487 642.37452 324.75367 645.4393 312.38829 632.79571 313.9487"/><polygon class="e" points="635.53045 312.30733 645.12938 321.5284 647.56435 310.50439 635.53045 312.30733"/><polygon class="b" points="638.80984 309.9828 646.80654 319.95815 650.86108 307.81879 638.80984 309.9828"/></g><g><polygon class="c" points="586.63947 278.65951 583.64599 276.00728 568.09906 293.05755 571.09253 295.70973 586.63947 278.65951"/><polygon class="i" points="586.05677 276.33099 573.80301 276.85575 586.21464 289.07171 586.05677 276.33099"/><polygon class="j" points="587.34663 274.91635 575.09291 275.44111 587.40202 287.76951 587.34663 274.91635"/><polygon class="i" points="577.68928 273.93074 589.08761 284.02953 589.23152 271.25132 577.68928 273.93074"/><polygon class="h" points="579.59983 272.42244 590.40604 281.99662 590.92273 270.71732 579.59983 272.42244"/><polygon class="e" points="581.80657 270.87171 592.33688 279.00968 592.5244 268.96076 581.80657 270.87171"/><polygon class="h" points="584.38659 268.68921 593.58547 277.54774 595.05324 266.45056 584.38659 268.68921"/></g><g><rect class="g" x="590.56484" y="288.75777" width="4" height="25.29017" transform="translate(387.75259 -331.07537) rotate(45.09699)"/><polygon class="j" points="589.81672 291.85415 602.57452 291.42701 601.39553 304.88954 589.81672 291.85415"/><polygon class="i" points="591.30291 290.37298 602.76362 303.52608 604.06071 289.94583 591.30291 290.37298"/><polygon class="e" points="594.15354 288.80418 604.90507 299.59218 606.40085 286.09318 594.15354 288.80418"/><polygon class="b" points="596.293 287.23047 606.48602 297.45805 608.21027 285.54656 596.293 287.23047"/><polygon class="e" points="598.74399 285.615 608.80233 294.32232 610.05571 283.70735 598.74399 285.615"/><polygon class="b" points="601.64849 283.33594 610.25071 292.79072 612.94169 281.08152 601.64849 283.33594"/></g></svg>