<?xml version="1.0" encoding="UTF-8"?><svg id="a" xmlns="http://www.w3.org/2000/svg" viewBox="0 0 10000 10000"><defs><style>.b{fill:#cecab3;}.c{fill:#a8a087;}.d{fill:#d87946;}.e{fill:#6d685b;}.f{fill:#716c5b;}.g{fill:#d3b390;}.h{fill:#cab195;}.i{fill:#aea999;}.j{fill:#cdb899;}.k{fill:#987b61;}.l{fill:#d6ceb8;}.m{fill:#e8f2e8;}.n{opacity:.3;}.n,.o,.p{fill:#fff;}.q{fill:#979384;}.o{opacity:.1;}.r{fill:#a5907c;}.s{fill:#c3b29b;}.t{fill:#e89b51;}.u{fill:#d2d2c1;}.v{fill:#a9a28b;}.w{fill:#e7c5a2;}.x{fill:#cfc9b0;}.y{fill:#96846f;}.z{fill:#aaa896;}.aa{fill:#e1874e;}.ab{fill:#e5e6cf;}.ac{fill:#bab097;}.ad{fill:#cfd1c1;}.ae{fill:#a4a190;}.af{fill:#cdc7b0;}.ag{fill:#564d3c;}.ah{fill:#383a37;}.ai{fill:#cea67d;}.aj{fill:#d3b07c;}.ak{fill:#e3eadf;}.al{fill:#d3d0ba;}.am{fill:#dcdcc8;}.an{fill:#49453a;}.ao{fill:#998871;}.ap{fill:#3a3b35;}.aq{fill:#a7957a;}.ar{fill:#d8c3a9;}.as{fill:#d6d0bb;}.p{opacity:.2;}.at{fill:#a98b79;}.au{fill:#cdc2a0;}.av{fill:#d8ded7;}.aw{fill:#f7e0ab;}.ax{fill:#756552;}.ay{fill:#ba7f5f;}.az{fill:#aaa088;}.ba{fill:#b8ae94;}.bb{fill:#af9279;}.bc{fill:#cda181;}.bd{fill:#6e6350;}.be{fill:#9a8e77;}.bf{fill:#888478;}</style></defs><circle class="aj" cx="5000" cy="5000" r="2500"/><path class="au" d="m7095,5037.99998c-141.51758,15.55029-350.80713,32.38281-640,36l-195,140c269.68213,64.88428,902.00635,203.4458,1217.92578,119.66846,13.12451-98.4043,20.52246-198.61914,21.85303-300.29785-132.95654,11.90674-271.354-10.03174-404.77881,4.62939Z"/><path class="ab" d="m6381.99996,5235.99996c46.55273-25.70654,199.16211-109.97754,185-174-17.09619-77.28711-269.29883-86.86963-320-91-102.16064-8.32275-176.10596,4.78418-249,15-29.13916,4.08398-192.42627,12.72266-519,30-263.4873,13.93994-315.04297,4.34424-847,9-376.93896,3.29883-565.40869,4.94824-804,16-344.44824,15.95508-418.12573,32.44287-750,48-227.76147,10.67676-424.00732,13.66455-575.91455,13.76074,4.49414,111.15723,16.24194,220.44531,34.79077,327.40234,1376.64258,15.12695,3481.06909,6.86768,3845.12378-194.16309Z"/><path class="aq" d="m6484.82178,2988.51001l-3068.19824,76.74487c-117.65869,96.40479-226.36621,203.3269-324.68164,319.3374l23.34375,290.69336,3843.33105-229.08325c-137.06738-172.54712-296.45312-326.56665-473.79492-457.69238Z"/><path class="bd" d="m4288.8208,2602.61353c-435.78687,129.07739-821.90918,373.74097-1122.85742,698.47095,61.04297,20.12964,194.5957,16.82935,694.03662-87.08447,163.6687-34.05298,253.87988-55.4519,396-58,158.75195-2.84619,203.0459,21.04224,334,30,347.43799,23.76587,417.33301-118.2793,788-126,87.36035-1.81958,207.57373,16.45361,448,53,270.5459,41.12476,421.34424,80.62793,661,75,60.07568-1.41064,150.96777-3.54517,219.76318-14.73315-106.88477-99.90747-222.54004-190.54858-345.69385-270.63208-506.77148-172.71167-1351.40479-292.87598-2072.24854-300.02124Z"/><path class="ag" d="m3266.25781,3198.8562c77.79175,24.31982,232.78809,9.07251,356.74219-35.8562,149.60669-54.22656,148.09155-113.30444,313-185,72.86938-31.68066,254.64111-110.70776,450-62,146.33643,36.48535,136.44971,103.7915,281,140,36.08887,9.04004,112.14453,23.74146,453-55,282.84277-65.33984,313.59863-94.66577,432-91,139.08203,4.30615,163.56445,46.84351,361,105,153.16553,45.11646,463.6875,136.5791,675.37891,54.3584-431.87793-355.72559-985.17871-569.3584-1588.37891-569.3584-673.21338,0-1284.27148,266.10229-1733.74219,698.8562Z"/><path class="az" d="m5950,3252c-118.54053,26.4939-399.146,103.64258-506,30-10.44141-7.19629-52.07275-38.47144-116-57-18.28223-5.29883-64.46045-17.1123-121-14-87.53809,4.8186-132.61279,41.71069-195,67-87.2251,35.35767-154.41064,26.1936-276,20-82.28516-4.19165-278.85693.20557-672,9-154.26855,3.45093-260.51221,9.96729-473,23-253.72266,15.56177-399.45288,29.67773-486.95923,40.42896-71.88623,83.56128-138.34253,171.92627-198.82202,264.55005,1020.92969,244.7041,3982.0459,561.29639,4216.78125,70.021,1.88037-3.93555,4.39453-9.19824,7.34668-15.57617-83.8418-135.93188-180.33545-263.22974-287.83984-380.25244-484.35059-13.90137-529.9541-137.97852-891.50684-57.17139Z"/><path class="af" d="m6523,3422l-729,6-386-6-1102,48-347-30-295,80-167-28-352,80-196.31494-1.38574c-39.46729,56.53418-76.6604,114.77368-111.43994,174.59058l4245.69775-128.19458c-31.36035-47.1377-64.27588-93.15161-98.67725-137.96533l-461.26562-57.04492Z"/><path class="u" d="m6543,3563c-78.62305-13.55078-122.64941-28.53857-219-34-173.33057-9.82495-230.65234,27.354-415,40-42.89648,2.94263-40.70898.99243-375-16-248.11084-12.61182-373.00293-18.89917-414-18-242.08252,5.31006-245.53076,40.896-482,46-231.69971,5.00122-227.85742-29.02417-420-12-160.16748,14.19116-178.44019,39.21655-369,51-109.99902,6.802-151.3125,1.39453-280,13-115.32056,10.3999-187.06201,24.18726-244,33-180.7876,27.98145-335.08032,24.47485-452.26172,20.06104-38.43774,62.09839-74.23535,126.00244-107.22974,191.56079,600.4812,254.3645,3542.052,36.92285,4382.16235-158.00659-36.65039-61.34375-75.84814-120.98975-117.45898-178.7832-166.95264-1.42212-261.01709,61.15283-487.21191,22.16797Z"/><path class="j" d="m6921,3633c-136.81494,25.41846-138.96582,32.604-201,36-193.89648,10.61475-223.09912-56.83521-402-55-191.51562,1.9646-215.11572,79.84766-351,43-65.37256-17.72705-115.60547-50.85571-192-34-51.74951,11.41797-71.42725,36.04736-122,31-47.13965-4.70483-49.18018-28.01367-116-46-34.87012-9.38623-86.09229-23.17407-131,0-32.3916,16.71533-25.45312,34.05957-58,55-62.81543,40.41479-147.97998,13.97363-164,9-67.52441-20.96436-65.64062-51.87842-113-55-55.12402-3.63354-70.93896,43.23682-140,49-54.6792,4.56299-90.03174-8.81006-128-18-149.34619-36.14795-191.37109,28.19751-390,12-102.00537-8.31812-84.771-24.78638-177-30-124.76709-7.05273-180.59521,21.71191-317,45-195.15967,33.31909-206.44092-4.12573-369,25-110.3313,19.76807-333.97729,78.01929-335,125-3.89185,178.79443,3208.78027,550.00684,4096.53076,221.0354-64.25537-155.52466-143.74609-303.15137-236.61865-441.0188-46.69971,8.11963-97.86328,17.57031-153.91211,27.9834Z"/><path class="b" d="m6927,3864c-.14111-16.76562-39.26367-35.77588-85-58-115.74414-56.24219-208.5752-32.08301-348-42-118.69971-8.44287-85.61133-28.38574-253-52-192.83887-27.20459-358.8667-17.96313-466-12-70.55127,3.927-105.82715,5.89062-152,12-106.7373,14.12329-126.51904,28.96313-189,24-73.79639-5.86206-82.52393-29.44922-143-30-80.07373-.72925-136.16016,39.97217-168,58-138.7373,78.5542-290.21826-5.50293-527-37-179.18604-23.83569-154.01953,16.11011-552,31-350.45288,13.11182-294.78857-20.67554-616-7-318.82153,13.57373-487.45996,51.70312-623.78979,52.83057-48.41187,88.68066-91.60815,180.61646-129.17627,275.39673,936.02563,137.93237,4253.27075-60.48926,4251.96606-215.22729Z"/><path class="as" d="m6403,3834c-501.05469-4.34888-752.47021-6.51294-796-6-262.23633,3.09058-509.12451,11.1626-810,21-393.23926,12.85718-382.22705,16.00562-549,18-379.69287,4.54053-416.11963-12.02612-661,3-232.41406,14.26123-240.51001,31.96289-518,49-175.95166,10.80298-261.61353,9.05469-328.15845,9.03882-85.95923,180.83716-150.83813,373.63159-191.47656,575.20581,1304.03027,249.99512,4264.83276,300.97461,4819.63501-224.24463,3.14062-2.97314,9.99658-9.55518,19.65869-18.99805-43.97021-142.09277-100.26904-278.76685-167.64941-408.77344-272.62695-.27393-545.33008-14.86157-818.00928-17.22852Z"/><path class="ak" d="m6948,3928c-217.82861,3.4314-381.9043,3.08545-414,3-202.76611-.54028-199.80273-4.17969-347-3-248.61572,1.99243-258.62598,15.02979-397,6-161.33008-10.52783-193.83154-28.79932-323-27-173.68896,2.41943-184.43945,36.42505-375,52-176.70557,14.44263-206.91211-11.57349-457-12-106.01074-.18091-194.78271,5.87695-368,18-428.51611,29.99072-436.62573,49.29077-711,64-302.20312,16.20117-316.71558-5.90698-591,18-93.5188,8.15137-187.34766,16.58105-290.37305,33.25024-52.63672,132.96899-94.20166,271.52661-123.55054,414.54028,1308.52075,205.31738,4458.91577,300.2749,4877.13306-92.01904-39.66406-161.81689-95.08545-317.44434-164.5376-465.1709-111.09717-13.46313-213.47998-11.21045-315.67188-9.60059Z"/><path class="l" d="m6659,4065c-138.29443,18.79907-240.00293,42.64697-366-3-62.71191-22.71973-79.21484-43.73462-143-55-131.61279-23.24463-163.34766,48.21362-299,49-162.24316.94043-203.17822-100.77832-323-64-70.29834,21.57739-70.48438,60.97144-155,89-83.88135,27.81836-131.19727,4.76587-226,0-210.70947-10.59253-228.98486,90.61816-423,79-146.07275-8.74707-150.8877-67.02686-275-52-102.09814,12.36133-137.45215,56.47559-246,55-83.12158-1.12988-82.48486-27.271-180-43-147.72217-23.82715-187.59375,29.96582-424,34-101.46191,1.73145-84.04321-8.34912-146-3-175.44678,15.14746-224.05518,88.11963-345,67-70.87939-12.37695-73.59668-40.8291-143-43-80.99097-2.5332-127.04858,34.65625-186,58-61.55371,24.37451-114.14209,24.53223-164.53955,17.00781-48.0957,153.13135-81.85986,312.60889-99.70728,476.86523,1271.94995,177.021,4331.34302,57.90234,4931.81274-243.42285-28.93701-137.74512-69.20801-271.31885-119.80176-399.69604-324.854-28.85815-505.11768-40.86353-667.76416-18.75415Z"/><path class="ai" d="m4452,5461c1168.99316-110.28418,2391.7124,193.45557,3006.64697-5.78076,18.54785-100.81982,31.04834-203.75635,37.10889-308.4209-194.99854-11.27295-467.19141,3.4541-702.75586,16.20166-323.8877,17.52734-334.80225,35.55908-527,30-269.99609-7.80957-338.94824-46.18115-610-37-168.58301,5.71045-176.73828,21.7334-381,28-196.84375,6.03906-263.61475-6.56055-451-9-102.24854-1.33105-113.67432,2.0127-564,27-341.89893,18.97119-512.84839,28.45654-685,37-357.89648,17.76172-380.79443,15.97021-479,30-239.80957,34.25977-257.65869,53.64111-405,55-64.44971.59424-121.45557-3.50342-171.36279-9.21191,15.77588,125.5708,40.86279,248.24316,74.55249,367.3042,397.26709,102.72607,1078.96216-147.61475,1857.8103-221.09229Z"/><path class="am" d="m4568,5580c873.16992-75.89844,1309.75488-113.84717,1591-85,510.64941,52.37744,973.45264,181.10449,1256.4502,152.0249,30.86865-115.53027,53.6709-234.35449,67.76318-355.83643-50.49707.61572-109.81006,2.6001-178.21338,2.81152-186.70996.57715-56.8208-13.25342-457-25-438.00781-12.85693-410.27295,9.09326-661-6-316.73926-19.06738-359.75049-54.02197-586-40-173.60059,10.75928-164.01221,32.31396-384,55-256.6123,26.46289-301.18359.38477-640,13-273.68799,10.19043-255.82227,27.62402-548,39-326.74829,12.72217-320.38818-10.19873-549,6-382.45752,27.1001-363.72046,88.66162-625,83-143.18604-3.10254-246.19409-23.69727-324.51343-27.5,14.2854,90.83105,33.46069,180.0376,57.24976,267.34229,638.67334-151.61719,1323.06201-21.71631,1980.26367-78.84229Z"/><path class="ad" d="m4820,5806c69.01025-39.73779,234.98096-135.30713,227-250-6.00781-86.3418-107.91113-144.90332-122-153-67.89697-39.01904-163.88428-55.90332-241-18-78.85791,38.75977-96.20996,120.42676-155,119-62.03418-1.50537-69.37891-93.08105-138-104-89.85449-14.29736-150.55518,131.05713-234,110-46.06201-11.62354-46.51709-60.69727-89-64-61.39429-4.77344-75.28491,96.56152-155,113-64.90942,13.38525-90.4585-46.63525-201-55-53.40967-4.0415-92.76587,6.54102-116,12-76.8125,18.04736-344.16357,66.26611-999.41284,174.48877,28.29517,98.66943,62.50146,194.83936,102.21265,288.10303,692.58496,14.50928,1806.88672,8.39697,2121.2002-172.5918Z"/><path class="w" d="m5927,5528c216.30664-3.08252,455.55762-72.99902,455-134-.34766-38.03662-93.95947-75.38184-168-82-69.2583-6.19043-82.94971,17.94141-195,33-54.37402,7.30762-130.5791,17.54883-220,0-95.90332-18.82129-102.13867-49.02734-173-54-99.0166-6.94873-216.12061,42.95752-217,88-1.34863,69.07617,270.14062,152.53223,518,149Z"/><path class="at" d="m2874,5766c242.78296-68.97314,433-116,433-116,416.40967-102.94824,526.0918-105.31885,527-140,1.38281-52.80127-249.97974-156.91846-439-76-84.80688,36.30518-99.44263,85.19092-192,100-101.31763,16.21045-139.18066-33.50244-259-27-86.64868,4.70264-119.04077,33.5332-204,61-44.07007,14.24756-99.56592,27.24219-167.44604,32.31543,19.63354,79.65674,43.08301,157.81006,70.14819,234.25537,89.88965-27.75586,167.70728-50.50488,231.29785-68.5708Z"/><path class="ac" d="m3425,6168l98,563,3269.80127,11.35986c154.58691-159.03369,288.19678-338.56299,396.36182-534.12744l-3764.16309-40.23242Z"/><path class="z" d="m3549,6610c59.27124-53.1543,84.87573-116.47607,177-171,132.9397-78.68066,226.89771-6.45654,419-42,152.29541-28.17822,329.43408-111.57617,323-163-11.15625-89.16602-577.40503-107.5127-1018-67-227.71802,20.93896-431.17871,58.45801-605.26245,100.59277,92.54736,157.01758,201.75806,303.04004,325.21045,435.62646,198.90698,15.64746,311.33984-32.49512,379.052-93.21924Z"/><path class="e" d="m3234.88257,6770.40088c259.01245,6.38135,374.87988-28.0918,427.11743-70.40088,10.54712-8.54248,38.78735-33.83545,85-58,127.64941-66.74756,246.22705-48.43848,248-68,1.12524-12.41406-45.62646-30.85107-100-40-111.43604-18.75049-186.71167,12.98291-279,33-93.25806,20.22754-86.38159,3.00439-302,16-59.12476,3.56348-137.74243,9.56738-232.10962,20.47363,48.47998,57.93115,99.53711,113.63086,152.99219,166.92725Z"/><path class="x" d="m6574,5792c-568.19971,25.43848-673.04248,137.57275-1360,241-718.43701,108.1665-1282.54297,87.71484-1283,137-.19775,21.32617,105.27588,41.08203,265,71,65.64453,12.2959,173.15283,29.49121,333,38,40.86279,2.17529,132.67773,6.31299,382-1,67.79004-1.98828,232.53564-7.32568,503-23,281.90625-16.3374,274.47314-20.48096,370-21,203.00537-1.10303,228.51562,17.65234,444,21,194.39551,3.02002,163.85938-12.396,423-14,258.13086-1.59717,387.8833-2.39551,503.14014,28.50439,82.38721-139.49609,151.604-287.69287,205.95459-442.87695-242.61719-58.95215-611.25342-42.45508-786.09473-34.62744Z"/><path class="av" d="m3136,6367c58.4707-9.85352,130.02563-21.18359,223-29,98.51831-8.28271,131.53467-5.09131,185-9,176.62695-12.9126,201.68311-75.91309,370-112,148.04541-31.74072,126.4458,17.47363,425-3,4.11865-.28223-1.29053.07959,302-30,109.72607-10.88232,144.94482-14.35254,201-24,123.32324-21.2251,130.37598-34.98193,206-42,110.7002-10.27295,113.53027,17.54004,241,16,139.47363-1.68506,150.44092-35.15674,272-27,97.70947,6.55615,97.46191,28.64111,185,29,102.69678.4209,119.69092-29.90625,226-38,122.34375-9.31445,123.04297,29.08496,235,22,35.39746-2.24023,176.12402-13.00488,285-111,54.0127-48.61475,95.52393-114.50098,116-147,24.02881-38.13867,36.04346-57.20752,35-64-14.92139-97.11865-884.6416-28.01807-1823,8-916.54272,35.18066-917.67163,1.14844-1172,50-281.19751,54.0127-724.8374,181.09619-945,111-2.27881-.72559-5.86816-1.89551-10.40186-3.10205,65.06055,155.56104,145.39307,303.14453,239.12451,440.87891,53.49927-10.85938,120.19165-23.60645,204.27734-37.77686Z"/><path class="c" d="m3614,6504c194.32983-7.20557,183.69019-4.20166,250-9,66.50049-4.8125,131.66699-12.875,262-29,171.25195-21.18799,235.13965-32.40771,301,7,32.06689,19.1875,29.63623,29.45557,75,56,37.94336,22.20264,120.54199,70.53564,192,40,9.32812-3.98633,40.57422-17.87988,56-51,17.7207-38.04834,7.50195-86.31152-19-114-17.1958-17.96582-50.13037-23.64404-116-35-44.99805-7.75781-67.49756-11.63672-87-8-47.19727,8.80127-60.61475,37.47461-101,59-36.13184,19.2583-59.26025,14.3584-159,13-86.34131-1.17578-172.65698,3.95166-259,5-157.79395,1.91553-146.34839,2.4834-162,2-154.74609-4.78076-175.67163-26.37793-259-14-96.78271,14.37646-182.79907,60.48145-179,77,2.39087,10.39551,39.90674,7.12158,205,1Z"/><path class="v" d="m5336,6504c49.2666,7.31396,126.62891-4.07129,140-50,8.60303-29.55078-12.36963-62.80322-33-80-50.18408-41.83154-124.17822-10.19287-141-3-16.24951,6.94824-71.12256,30.41113-71,64,.12891,35.39209,61.24561,62.50439,105,69Z"/><path class="s" d="m7161,5622l-493.71436-8.42871-938.28564,10.42871,309,142,1293.64746,137.74951c24.6084-63.44434,46.69629-128.14502,66.15234-193.97559l-236.7998-87.77393Z"/><path class="ax" d="m6697.22363,6835.60205c-136.729-64.96973-373.40918-91.97412-512.22363-90.60205-41.00781.40527-127.12109,3.81689-267,2-118.81836-1.54346-156.65088-5.30371-240-7-169.11963-3.44141-199.37744,8.25537-403,14-256.14258,7.22656-243.30078-10.29346-441,0-134.38232,6.99707-110.87695,13.55908-372,34-142.13623,11.12646-233.67529,18.15039-359,21-152.52954,3.46826-153.11279-3.83936-265,2-102.78418,5.36426-179.92114,15.98242-330,37-66.1709,9.2666-121.34033,16.99316-165.61353,23.48096,441.19946,391.0708,1021.67603,628.51904,1657.61353,628.51904,655.15576,0,1251.44238-252.02197,1697.22363-664.39795Z"/><path class="an" d="m6434.40234,7047.81494c-172.45166-11.09668-515.90186,72.34131-672.40234-3.81494-22.40039-10.90039-70.20557-39.37646-135-36-63.60303,3.31445-89.0498,34.43896-157,36-52.50244,1.20654-63.54346-16.77197-117-27-143.84863-27.52295-188.80957,78.7627-325,55-77.15967-13.46289-96.47217-55.23047-162-41-54.49121,11.8335-63.4668,45.16699-116,52-72.15576,9.38525-99.97168-47.67969-176-57-73.17383-8.97021-107.89941,36.47461-190,73-127.2793,56.625-178.64746,7.38672-430,21-39.92725,2.1626-154.31201,8.35791-239.04297,24.88477,375.52466,225.46875,815.14258,355.11523,1285.04297,355.11523,533.7124,0,1028.3623-167.24561,1434.40234-452.18506Z"/><path class="ah" d="m6087.54785,7251.67871c-78.49609-6.37354-215.22559-6.24365-437.54785-44.67871-37.90527-6.55322-96.80518-17.35645-176-12-104.43994,7.06396-121.125,33.98535-226,48-70.67529,9.44434-134.1167,3.29639-261-9-127.80566-12.38574-124.43652-20.66406-226-30-65.64258-6.03418-185.4834-16.45264-325,0-128.60059,15.16553-136.90381,37.00391-274,62-69.99121,12.76123-128.09229,18.05664-175.87085,19.86377,309.8772,137.64746,652.94116,214.13623,1013.87085,214.13623,389.78613,0,758.73291-89.21289,1087.54785-248.32129Z"/><path class="ae" d="m3351.38428,6879.41699c286.47266-26.64404,728.91602-83.60254,1272.61572-116.41699,284.48438-17.16992,635.55078-33.36328,1054-23,562.97754,13.94287,851.36084,64.06494,1006.03955,107.71436,43.38818-39.56738,85.3833-80.63672,125.89111-123.13672-52.58789-40.5376-114.87891-77.66846-183.93066-102.57764-45.30322-16.34229-130.85303-25.05371-302-42-196.52734-19.45947-294.7915-29.18896-381-25-158.30859,7.69238-214.6123,34.99463-297-7-31.90869-16.26416-68.20264-43.16406-117-36-53.05469,7.78906-54.18701,46.05176-103,59-82.72754,21.94434-129.64648-74.64941-226-57-45.93262,8.41357-37.75781,30.82031-96,48-80.27637,23.6792-111.83838-14.1582-199-4-82.93506,9.66602-79.36426,46.8374-160,61-91.76172,16.1167-120.90527-27.71338-233-41-80.11279-9.49609-107.6084,7.86816-277,39,0,0-74.40332,13.67432-304,43-375.71436,47.98877-578.06274-1.04297-748.18457,56.92383,53.62744,56.73877,109.87939,110.97021,168.56885,162.49316Z"/><path class="q" d="m3536,6866c111.76562-12.7749,167.64844-19.16211,174-20,95.87964-12.64551,102.0459-16.19727,132-14,85.22534,6.25146,104.34424,40.06641,160,25,43.80957-11.85938,51.9187-38.21338,92-37,37.29834,1.12939,40.55518,24.26221,80,30,46.84131,6.81396,64.67188-22.54639,125-34,41.78418-7.93311,41.39355,4.60156,117,7,94.31201,2.9917,109.32324-16.05566,203-12,67.72803,2.93213,58.96289,12.84912,108,12,99.2915-1.71973,112.604-41.98584,192-41,80.06055.99414,83.86768,42.15283,164,41,72.39453-1.0415,77.13281-34.74756,156-46,104.97363-14.97705,121.41113,41.19482,224,30,100.81006-11.00049,109.99658-67.97559,192-60,67.99268,6.61279,79.47754,47.51367,160,62,67.66895,12.17383,118.53711-6.10059,157-16,90.09619-23.18848,211.06445-.12549,453,46,84.77441,16.16211,124.25928,29.34717,211.26416,51.19434,25.16309-21.80176,49.88037-44.10449,74.14893-66.87891-73.87939-28.94873-159.2251-57.66699-248.41309-80.31543-164.86523-41.86572-300.67773-52.28369-366-57-24.88672-1.79688-20.07861-1.02637-428-3-45.81982-.22168-106.84814-.52637-189,5-89.49561,6.02051-108.44141,12.52881-165,16-129.33008,7.93799-142.99023-19.17383-279-23-121.98682-3.43164-225.42188,15.1582-308,30-128.40283,23.07764-143.36572,39.36279-213,34-101.29248-7.80127-118.1333-45.99609-206-41-84.81689,4.82275-86.57227,41.40381-187,55-85.52759,11.5791-95.34155-13.45166-203-9-77.86133,3.21924-98.33594,17.37061-204,36-86.75342,15.29541-148.7644,19.12256-244,25-70.66602,4.36133-133.47388,5.53613-187.98291,5.18066,24.98877,23.646,50.46582,46.78125,76.41357,69.39014,45.03491-4.42236,103.09961-11.05908,177.56934-19.5708Z"/><path class="m" d="m5376,6479c25.03271-5.11279,53.146-25.77051,52-47-1.40186-25.9668-46.31982-47.98682-83-41-24.68213,4.70166-53.4917,24.03418-53,45,.60986,25.99805,46.18799,50.72266,84,43Z"/><path class="m" d="m6286,6773c12.07861,9.24121,56.01025-18.33496,53-30-2.34766-9.09717-35.65723-17.85498-50,0-7.37939,9.18652-9.45264,25.06299-3,30Z"/><path class="m" d="m6119,6444c14.70361-8.67236,28.23877-27.15674,23-37-5.11182-9.60498-26.77246-8.48926-41-3-20.27588,7.82324-38.03125,29.38184-33,40,4.97119,10.49121,32.48193,10.92188,51,0Z"/><path class="ao" d="m6383,6211c48.87061,4.90576,84.58447-.26416,109-3,17.7666-1.99072,75.84424-1.32715,192,0,126.646,1.44727,168.46973,4.18066,183-22,7.67139-13.82227,6.93799-36.52441-4-49-7.43848-8.48438-18.58203-11.02441-42.36816-12.47119-33.83789-2.05811-52.99219-6.75244-75.63184,1.47119-13.64404,4.95605-15.021,8.90723-29,12-14.46631,3.20068-23.83008,1.36768-43,0-21.75781-1.55225-15.2207.41553-50-1-35.72266-1.45361-44.02637-3.58691-68.16406-2.3291-13.21387.68848-17.18457,2.18213-25.83594,2.3291-39.51758.67188-41.44922-9.66504-88-14-18.8208-1.75244-115.66699-9.11084-145,37-6.0957,9.58252-5.32715,15.26709-5,17,4.76855,25.24365,70.80566,31.87256,92,34Z"/><path class="f" d="m6771,6203c20.97168,7.07373,51.35498,5.18115,69-17,14.99219-18.84668,14.15137-43.99707,6-62-10.68408-23.59619-35.78613-39.01758-62-37-29.99414,2.30859-57.41846,27.13965-58,58-.54443,28.9043,22.69678,50.47656,45,58Z"/><path class="m" d="m6788,6190c17.76953.48389,32.27881-15.07715,32-32-.22168-13.44482-9.74414-25.76074-22-29-19.11768-5.05273-41.53418,12.8667-40,33,1.0835,14.2207,13.96582,27.56348,30,28Z"/><path class="r" d="m4926,6394c27.32178,1.38916,81.21484-5.40723,189-19,52.88086-6.66895,96.60498-13.33838,99-30,1.51953-10.57275-14.21973-20.87207-19-24-35.63379-23.31738-77.875-10.37988-124-3-43.98291,7.03711-77.99951,6.36133-146,4-70.93018-2.46289-92.57568-9.95557-175-11-51.08447-.64746-76.62646-.97119-78,5-3.50537,15.23975,118.7041,71.12207,254,78Z"/><path class="m" d="m4919,6375c37.3623,2.30859,79.56836-7.88721,80-19,.41846-10.77002-38.43701-21.45166-65-25-42.89648-5.73047-93.83008,1.78516-95,14-1.09814,11.46582,41.60059,27.62744,80,30Z"/><path class="m" d="m4606,6503c33.69531-1.8667,72.90576-25.06055,73-51,.10254-28.22119-46.11865-52.88965-85-52-33.34863.76318-74.26465,20.62549-76,46-1.94043,28.37109,45.39307,59.36035,88,57Z"/><path class="af" d="m3008,6010c528.41504,2.13623,663.34692-15.11914,775-36,154.82031-28.95361,186.45898-50.21143,323-61,122.3999-9.6709,108.16113,6.52783,468,16,439.05176,11.55713,338.76904-15.75635,380-7,11.52246,2.44727,36.71338-1.97803,40-3,27.69238-8.61035,59.58105-147.78027-2-204-66.49072-60.70166-167.05322,43.67432-328-15-62.74072-22.87256-76.04346-49.1543-124-45-52.75049,4.56982-122.18262,41.95459-173,36-35.22314-4.12744-41.65283-18.57617-77-32-88.56445-33.63379-163.18945,13.40576-256,36-147.86304,35.99658-151.41382-36.42236-329-17-169.3772,18.52441-177.88135,85.68604-359,98-102.0752,6.93994-112.35229-13.51025-210,0-116.84229,16.16602-176.67065,55.75879-265,90-50.79956,19.69287-116.13306,39.58984-197.19922,51.67334,11.85986,30.03906,24.29199,59.78906,37.2688,89.24561,118.25073,1.9668,218.53906,2.76416,296.93042,3.08105Z"/><path class="y" d="m6425,6175c6.42969-12.47656,4.02393-30.82715-8-39-14.54443-9.88574-36.83057-.57666-45,15-5.82568,11.10791-5.51025,27.38135,4,36,13.1665,11.93213,39.9502,5.56104,49-12Z"/><path class="bf" d="m3060,6402c108.56226-19.77832,195.90698-28.40625,264-34,157.4895-12.93799,258.76074-13.48828,532-18,352.9043-5.82715,485.15039-9.88232,487-31,.55078-6.28955-10.56641-12.93359-31-21-117.22363-46.27686-231.35278-17.11914-306-3-134.38794,25.41846-273.33691,10.57666-410,16-195.84521,7.77197-210.83203,7.41406-267,13-132.33301,13.16113-168.96484,27.06494-273,34-41.6001,2.77344-93.47852,4.39307-154.11108,1.92627,14.35034,22.09424,29.0459,43.94336,44.06763,65.54834,34.77075-7.98682,72.9209-15.98242,114.04346-23.47461Z"/><path class="i" d="m5681,6366c65.46143,13.89209,83.93896,43.83984,133,34,35.85889-7.19238,74.28467-32.87842,73-56-1.74854-31.46875-76.66504-51.14404-118-62-41.45215-10.88672-73.2832-12.68848-99-14-70.16895-3.57812-105.56836-5.38281-134,19-22.58887,19.37207-41.75439,56.11182-30,75,17.05518,27.40674,78.18896-16.54443,175,4Z"/><path class="i" d="m6308,6412c29.71777-5.56543,28.28027-21.80469,63-33,54.41113-17.54492,108.55371,6.01855,120,11,33.979,14.78809,32.44971,26.18604,65,36,11.34131,3.41943,44.85596,13.52393,80,2,36.2417-11.88379,31.98535-32.92139,69-52,43.0083-22.16797,91.31641-15.7041,119-12,52.95801,7.08594,70.91309,25.13623,84,14,18.97021-16.14307,8.33691-77.12646-25-96-24.38525-13.80566-46.30127,3.1958-96,12-51.3501,9.09668-54.09424-4.42188-157-10-88.01904-4.771-132.02881-7.15674-180,8-56.44678,17.83447-61.79346,37.98633-105,38-48.8916.01562-75.43701-25.77734-110-9-15.12939,7.34375-32.59277,23.23193-32,40,1.04639,29.5874,58.23486,59.75781,105,51Z"/><path class="g" d="m7055,5800c-18.9375,8.1543-50.68848,27.22852-101,32-47.95752,4.54834-76.99365-7.29346-147-22-3.91895-.82324-49.2793-7.88232-140-22-111.1582-17.29834-170.71094-18.90039-288-30-209.61035-19.83594-314.41553-29.75391-407-62-91.32617-31.80762-164.26611-57.21191-237-124-78.69092-72.2583-81.09082-123.12354-165-169-83.25586-45.51904-166.77441-42.39453-195-41-87.59375,4.32764-150.14014,37.35449-179,53-19.12451,10.36768-84.36475,46.44678-141,112-20.94678,24.24512-35.76904,46.7959-71,76-36.46387,30.22656-45.58496,26.79248-61,47-31.73096,41.5957-24.56689,97.41504-20,133,4.24414,33.06885,10.12646,78.90234,42,117,33.48584,40.0249,79.44629,49.56104,170,67,131.47656,25.31982,229.23438,18.6626,251,17,90.83057-6.93848,140.7627-10.75244,192-46,29.2251-20.10449,33.89551-33.25146,59-39,67.8374-15.5332,114.88818,61.88281,161,43,28.99951-11.87549,18.146-45.66992,50-82,64.45605-73.51318,216.74219-58.13867,227-25,6.27441,20.26953-42.35645,41.4707-35,71,5.10742,20.50293,35.23438,37.11035,63,37,65.01465-.25781,92.82666-92.08008,143-83,18.23389,3.2998,18.104,16.06836,44,32,31.53223,19.39941,64.91504,20.62939,128,16,124.82471-9.16016,168.80908-27.86963,180-10,15.56201,24.8501-52.67725,87.88672-43,98,7.979,8.33838,54.18848-35.4126,130-70,74.29688-33.89648,129.59033-59.12305,177-38,50.59668,22.54297,57.19531,82.27393,88,79,28.3418-3.01221,29.81543-54.32373,68-68,34.88916-12.49609,73.59619,16.03711,92,28,40.35205,26.23047,104.35059,51.61914,210.49414,53.24707,15.00049-35.1582,29.22754-70.72559,42.64111-106.68945-154.21973-94.29883-238.64648-94.86719-288.13525-73.55762Z"/><path class="aa" d="m5075,5881c123.45312,89.49707,279.8999,50.95947,295,47,40.15186-10.52881,94.07861-25.45654,136-75,9.62988-11.38037,64.68994-76.45166,44-142-11.62646-36.8335-41.56348-56.04736-82-82-26.63477-17.09424-79.03857-50.72754-154-59-112.12793-12.37402-249.75732,34.75-296,131-6.48926,13.50732-22.36719,47.73291-14,88,9.71729,46.7627,46.41992,74.18066,71,92Z"/><path class="t" d="m5144,5828c62.23584,47.47949,161.72949,58.26807,243,19,13.76953-6.65283,101.33984-50.65479,97-107-1.94141-25.20361-21.57715-43.85059-27-49-19.81006-18.81201-38.18799-19.69189-95-33-77.71631-18.20459-72.35986-23.35986-96-23-15.67432.23877-61.50342,3.1665-103,36-7.16846,5.67188-68.54248,54.23389-57,107,1.06885,4.88721,6.25781,25.78418,38,50Z"/><path class="d" d="m5301,5809c35.88281,1.56982,74.15088-25.26855,72-46s-44.6958-35.10596-78-32c-21.7915,2.03223-55.75098,13.05225-58,32-2.39893,20.20996,31.85303,44.59326,64,46Z"/><path class="ar" d="m7376,5427l-362-18-94-1-70-33-111,51-136-28-567,26-358,56,186,126,1193,10,340.6167,94.39746c25.22119-85.25488,46.01611-172.40918,62.125-261.19629l-83.7417-22.20117Z"/><path class="bc" d="m7184,5343c-7.52295,1.96094-33.29395,9.86768-70,13-51.76855,4.41748-56.33203-6.5459-94-1-54.19287,7.97949-63.49316,33.43311-100,27-31.09814-5.47998-30.75928-24.92627-60-32-47.86914-11.58057-65.75586,38.24463-126,44-65.66406,6.27295-83.35059-49.20117-148-38-40.50488,7.01807-39.83203,27.92822-88,36-42.34424,7.0957-47.71826-8.78906-110-10-64.81104-1.26025-74.32666,15.64355-113,4-43.45605-13.0835-40.8501-37.1875-74-43-55.00244-9.64453-74.25732,55.22705-142,59-57.62158,3.20947-71.38672-42.18359-128-32-37.9873,6.83301-38.36768,28.4541-85,41-32.71826,8.80225-45.6709,1.69434-110-2-72.15234-4.14355-136.00244-7.81006-145,14-6.86963,16.65283,17.90918,48.95312,48,67,68.58496,41.13379,132.52393-11.1167,319-34,11.21143-1.37598,55.47412-4.25049,144-10,192.54785-12.50537,217.02686-10.62549,242-7,66.82373,9.70117,78.7915,23.42334,132,20,65.08105-4.18701,70.30908-26.2041,126-26,79.16309.29004,103.01953,44.90381,150,26,39.29199-15.81006,36.36523-47.49268,74-56,38.30762-8.65967,56.26562,22.27295,116,41,33.73486,10.57617,40.18311,4.52783,152,5,83.13623.35107,124.7041.52637,168,6,77.48535,9.79541,90.8501,23.35596,164,31,9.05615.94629,17.8457,1.67578,26.3501,2.22803,4.7915-24.20361,9.22607-48.53564,13.31348-72.98486-169.94092-73.58057-245.30615-81.72021-281.66357-72.24316Z"/><path class="bb" d="m7344,5634c-119.68701-28.55811-126.61328-46.41895-215-64-89.104-17.72363-77.92578,1.25146-250-17-101.09326-10.72266-117.27832-18.57959-166-11-62.43115,9.7124-83.3418,30.00049-145,29-54.50586-.88428-59.97021-17.09277-116-24-89.41455-11.02295-102.48926,26.92725-201,29-85.98486,1.80908-85.92871-26.89502-194-31-99.19043-3.76758-101.06543,20.34375-163,7-71.96924-15.50586-131.66064-61.46826-183-101-38.15088-29.37646-68.41504-58.62891-121-67-11.25146-1.79102-54.89648-8.73926-66,10-15.33643,25.88232,40.86914,84.80078,63,108,56.02295,58.72705,113.53906,88.39062,131,97,70.47656,34.75,131.28223,43.49121,172,49,75.52734,10.21826,88.45752-.63867,234-1,13.26562-.03271,14.97803.05273,191,5,143.88477,4.04395,216.0708,6.06445,228,6,110.92578-.60156,113.31299-7.24951,273-10,57.0459-.98242,110.39551-1.05811,175,2,70.53711,3.33887,105.80615,5.0083,139,12,65.30664,13.75537,116.54736,38.14062,194,75,23.51855,11.19238,41.88086,20.52197,56.78857,27.95312,12.09863-37.68457,23.32959-75.7583,33.66455-114.19922-19.34814-4.56006-42.74902-10.14355-70.45312-16.75391Z"/><path class="h" d="m4903,5726c6.15088,1.55957,15.15332-21.87793,27-43,27.61475-49.23438,53.50781-55.25781,119-113,91.73291-80.87793,87.12158-109.78271,141-126,36.09277-10.86377,75.14551-9.02441,77-22,1.20703-8.44678-14.02344-18.44824-26-23-48.19189-18.31543-106.81689,27.61914-129,45-56.27979,44.09668-60.64502,75.31055-121,139-34.19678,36.08594-69.53125,37.3374-85,75-12.30518,29.96045-10.24512,66.16309-3,68Z"/><path class="ba" d="m5592,4078c-22.04736,5.91992-50.38428,26.31396-49,54,1.41846,28.37158,33.16553,46.7627,58,49,38.8999,3.50439,80.60156-30.84473,77-61-3.50781-29.37207-49.63721-51.76392-86-42Z"/><path class="k" d="m5473,3657c-23.08301-1.92163-76.47705-3.36108-79,9-2.55811,12.53394,46.92627,40.5354,98,40,30.96436-.32471,66.91064-11.18481,67-22,.10693-12.92407-51.00342-24.08667-86-27Z"/><path class="be" d="m6791,3433c-65.7168-14.65869-133.62012-35.77856-259-55-117.43945-18.00415-180.58936-27.15283-265-14-97.0625,15.12427-106.47363,41.69824-164,32-103.7959-17.49878-125.87695-112.89966-197-105-60.78223,6.75098-59.604,78.08789-139,110-66.54004,26.74487-102.85596-9.09595-217-21-125.24463-13.06177-122.66748,25.79785-288,28-184.37158,2.45581-185.91211-45.89136-293-18-65.80713,17.13965-131.56982,52.67627-183,20-25.2041-16.01367-28.25928-36.52441-55-43-41.18115-9.97266-58.81592,32.64746-114,45-68.61133,15.3584-95.81055-38.33496-174-32-50.31201,4.07642-69.9624,28.81226-114,51-121.16357,61.04639-184.4375-19.37866-384-3-160.10181,13.14014-171.24268,69.16064-295,51-53.98901-7.92261-94.88037-24.89575-167-19-71.02124,5.80591-112.58716,28.90601-153,44-104.88306,39.17334-171.40283,12.99219-326.64941-8.67847-26.45825,35.05347-52.02026,70.82129-76.64038,107.27808,82.92725,12.78613,176.92163,24.7334,291.28979-.59961,133.88452-29.65601,168.96826-82.33252,281-71,70.24731,7.10596,88.84277,31.09302,153,21,69.43579-10.92334,87.01733-45.2124,165-60,39.18164-7.42993,50.09912-1.68579,137,3,100.80786,5.43555,178.00342,2.6604,252,0,145.41553-5.22803,132.14062-16.05176,210-12,100.42236,5.22607,118.50049,23.02368,201,16,67.23535-5.72412,72.21582-18.99146,149-25,44.96777-3.5188,75.42188-1.48511,162,5,207.5542,15.54688,192.89404,15.87158,208,16,163.6792,1.39233,168.04834-51.31787,292-41,127.23633,10.59131,133.7832,67.0603,238,57,88.08545-8.50293,106.27588-51.05078,210-64,78.34375-9.78076,134.75,6.15479,181,16,142.19775,30.26929,176.10596.35278,434,2,269.54541,1.72168,339.74414,35.08545,506.22217,31.08252-9.38623-12.44531-18.88428-24.80176-28.49609-37.0647-56.03076-4.17041-115.85107-12.21606-177.72607-26.01782Z"/><path class="al" d="m5220,3284c-41.99268-1.26904-84.2334,34.78076-80,60,3.93799,23.46021,47.6123,34.67822,74,36,30.21533,1.51343,76.74023-7.99683,82-32,5.47803-24.99854-34.45264-62.74438-76-64Z"/><path class="ap" d="m3396.24292,3082.12842c61.8562-19.84351,144.65503-49.86426,249.75708-88.12842,293.37915-106.80957,296.07031-124.05225,436-164,118.38574-33.79736,249.59082-51.53149,512-87,203.58594-27.51758,305.37842-41.27637,414-48,64.56055-3.99634,289.10498-15.85059,638,25,258.43066,30.25854,450.50977,73.67578,583.06348,102.48633-362.94727-205.30078-782.31934-322.48633-1229.06348-322.48633-610.38379,0-1169.67261,218.75171-1603.75708,582.12842Z"/><path class="p" d="m5000,4500C2238.57617,4500,0,4723.85762,0,5000s2238.57617,500,5000,500,5000-223.85762,5000-500-2238.57617-500-5000-500Zm0,990c-2706.19531,0-4900-219.38047-4900-490s2193.80469-490,4900-490,4900,219.38047,4900,490-2193.80469,490-4900,490Z"/><path class="n" d="m5000,4520c-2650.9668,0-4800,214.90332-4800,480s2149.0332,480,4800,480,4800-214.90332,4800-480-2149.0332-480-4800-480Zm0,955c-2623.35254,0-4750-212.66475-4750-475s2126.64746-475,4750-475,4750,212.66475,4750,475-2126.64648,475-4750,475Z"/><path class="o" d="m5000,4540c-2540.50977,0-4600,205.94902-4600,460s2059.49023,460,4600,460,4600-205.94902,4600-460-2059.48828-460-4600-460Zm0,910c-2485.28125,0-4500-201.47187-4500-450s2014.71875-450,4500-450,4500,201.47187,4500,450-2014.7168,450-4500,450Z"/><path class="aw" d="m7025,4830l3-439-4481.823,128.33203c-30.29419,155.55176-46.177,316.25439-46.177,480.66797,0,56.80371,1.90674,113.16211,5.63623,169.021l4519.36377-339.021Z"/><path class="ay" d="m7183,4233c-64.74854-41.79053-57.32812-131.99219-110-143-63.75195-13.32349-92.45996,115.0918-210,146-45.30859,11.91406-51.229-4.48828-244-46-142.03076-30.58496-214.08545-45.56006-265-30-71.70117,21.9126-94.57129,63.54492-158,58-55.43262-4.84619-70.92725-39.5249-116-61-132.82959-63.28711-238.65625,123.3584-433,110-152.98291-10.51514-192.36084-133.38379-338-107-71.92285,13.0293-76.26318,45.521-150,55-124.60059,16.01807-161.5332-70.41846-283-92-212.22217-37.70679-343.00537,182.87842-481,113-71.96826-36.44385-69.4834-113.19678-135-119-83.81104-7.42383-131.63574,114.30078-204,98-48.73901-10.979-42.36353-69.64844-94-101-82.56812-50.13184-196.60986,40.53662-363,104-94.47925,36.03564-77.82178,14.47314-414,76-406.45142,74.38818-358.0498,100.23682-509,104-36.3374.90576-70.54004.36426-102.79175-.96094-22.06372,89.09521-39.35181,180.07422-51.57153,272.65186,359.19971-40.3335,502.54028-123.146,839.36328-113.69092,240.91455,6.7627,216.78198,50.50977,394,37,295.40649-22.51953,405.81299-147.37939,627-92,138.98926,34.79932,122.78467,90.95947,259,119,185.52246,38.19092,269.50977-54.88428,540-116,115.60156-26.11914,320.43652-72.40039,558-30,275.73682,49.21387,342.64111,172.75732,527,128,140.03906-33.99756,166.08154-120.97559,298-122,123.39404-.9585,177.60303,74.54395,308,146,180.36084,98.83594,457.62012,163.15283,612.66016,95.59619-20.17041-182.04395-59.88281-358.19434-117.00146-526.30371-63.56006,26.68311-127.05664,74.88525-184.65869,37.70752Z"/><path class="aj" d="m7095,5038c133.42188-14.66064,271.8125,7.27539,404.76562-4.62842.14453-11.10791.23438-22.229.23438-33.37158,0-165.04639-16.00391-326.35352-46.52734-482.46338-147.87109-23.73779-341.30664,15.85449-480.47266,75.46338-160.27539,68.65039-246.87695,163.12158-372,131-44.12305-11.32715-132.11914-48.43018-216-98-44.19922-26.11963-67.54395-44.05225-80-52-132.87793-84.78467-405.30566,82.96143-554,159-438.38379,224.17871-956.01562,244.02832-1044,97-36.03125-60.21143,6.25-137.95312-49-181-47.24121-36.80713-119.19141-11.94434-222,21-201.2002,64.47314-354.35938,113.09277-496,136-58.69922,9.49316-316.28516,51.27734-356-34-25.25781-54.23486,57.0127-119.38037,36-149-40.35059-56.87744-360.70117,159.40186-746,250-139.8125,32.87549-267.19629,44.2666-372.71094,45.98438-.85645,26.90039-1.28906,53.90723-1.28906,81.01562,0,34.42188.70703,68.67773,2.08691,102.76074,151.90723-.09619,348.15234-3.08398,575.91309-13.76074,331.87402-15.55713,405.55176-32.04492,750-48,238.5918-11.05176,427.06055-12.70117,804-16,531.95703-4.65576,583.5127,4.93994,847-9,326.57422-17.27734,489.86133-25.91602,519-30,72.89453-10.21582,146.83984-23.32275,249-15,50.70117,4.13037,302.9043,13.71289,320,91,.7168,3.23828.99805,6.52881.89648,9.85986.00195-.00537.00195-.01123.00195-.01709,231.61719-5.98828,404.71094-20.39404,527.10156-33.84277Z"/></svg>