<?xml version="1.0" encoding="UTF-8"?><svg id="Layer_1" xmlns="http://www.w3.org/2000/svg" viewBox="0 0 10000 10000"><defs><style>.cls-1{fill:#d1bbac;}.cls-2{fill:#dd8160;}.cls-3{fill:#c97658;}.cls-4{fill:#e68564;}.cls-5{fill:#9e755f;}.cls-6{fill:#c7b2a4;}.cls-7{fill:#d17b5c;}.cls-8{fill:#ccb292;}.cls-9{fill:#bda99b;}.cls-10{fill:#e38463;}</style></defs><circle class="cls-2" cx="5000" cy="5000" r="2500"/><path class="cls-5" d="m2904,4355c21.6897,6.52783,64.41528-82.08643,142-243,84.4978-175.25171,176.54639-366.16406,133-399-25.27197-19.0564-91.81494,18.44458-129,57-37.31958,38.69482-49.30054,82.83936-54,101-73.57715,284.32812-122.84521,474.7168-92,484Z"/><path class="cls-5" d="m4999.99995,7500c1097.89893,0,2030.49097-707.72363,2366.47998-1691.84375-32.40576-3.69775-80.90918-9.74902-155.47998-21.15625-140.83154-21.54297-212.26221-32.70801-262-52-148.61084-57.64258-154.97461-126.28418-234-122-112.80176,6.11475-124.68799,147.31885-256,167-105.88428,15.87012-153.55273-67.63916-231-32-80.38135,36.98975-80.90332,150.81689-134,152-50.34424,1.12158-80.44775-100.5293-114-92-27.31299,6.94336-9.0127,74.72363-48,110-57.58838,52.10742-219.92432,14.9751-277-80-37.11475-61.75977-11.1582-117.09082-45-135-43.94238-23.25439-97.56494,64.81641-198,86-90.19043,19.02295-125.96191-35.33252-283-93-243.02246-89.24219-368.42773-36.57764-411-124-18.4917-37.97266,5.61816-46.98486-10-217-6.84082-74.46484-15.13623-112.69141-46-138-29.40723-24.11377-77.03613-34.64111-97-16-18.95312,17.69727,1.90283,54.02979,6,106,14.8418,188.26904,42.14404,249.59033,16,266-31.59082,19.82861-124.3501-36.50342-140-107-8.83643-39.80615,13.81494-53.03125,11-105-4.08154-75.34375-57.15967-148.46289-86-143-33.28857,6.30518-4.07031,111.57959-74,175-48.33447,43.83545-117.14258,43.28613-153,43-101.125-.80713-113.33691-49.25537-193-52-129.38623-4.45801-179.96387,120.49316-258,94-76.44531-25.95312-69.73633-160.06201-125-165-59.32129-5.30078-82.44336,147.8501-172,157-63.07227,6.44434-78.05713-66.81641-171-69-56.23877-1.32129-101.59375,24.30713-130-3-17.27637-16.60791-18.75488-43.63525-29-43-10.15527.62939-9.63477,27.24072-32,47-12.55957,11.09619-26.18457,14.59668-36,17-128.9873,31.58643-323,19-323,19-37.41211-2.42725-83.08496-1.65283-136.4375,7.37402,210.06836,1168.22412,1231.73486,2054.62598,2460.4375,2054.62598Z"/><path class="cls-6" d="m3885.99995,3227c311.43457-96.40649,327.86816-66.28589,819-195,433.74316-113.67383,403.47705-132.59326,662-189,332.64014-72.57812,570.43408-82.20605,715.33252-97.19995-327.49854-157.53174-694.60693-245.80005-1082.33252-245.80005-877.11523,0-1648.72217,451.70508-2094.91016,1135.17578,67.5542-33.49512,139.61523-68.07031,215.91016-103.17578,217.99951-100.30762,452.87061-208.37842,765-305Z"/><path class="cls-10" d="m7138.03608,3703.60913c-114.49561,16.87646-296.27588,54.46509-525.03613,145.39087-292.09912,116.10132-246.48926,154.4917-649,357-266.87744,134.26953-523.07812,291.08154-798,408-102.94873,43.78174-195.76074,79.79248-208,152-24.24219,143.02197,288.61572,304.17236,397,360,167.31201,86.18115,550.80615,283.71484,1008,192,264.97852-53.15576,271.70752-146.70068,470-134,303.37622,19.43164,551.57373,255.29736,616.46411,318.56982,33.13403-162.35156,50.53589-330.42822,50.53589-502.56982,0-474.64062-132.27148-918.38745-361.96387-1296.39087Z"/><path class="cls-5" d="m5943,3170c-13.66211-18.95068-39.85205-55.27783-84-60-48.73242-5.21265-102.93408,29.83984-110,72-3.25244,19.40552,4.41162,34.76611,18,62,10.73242,21.51001,29.59814,59.3208,71,87,5.35205,3.57812,85.78125,56.20361,126,27,40.47803-29.39185,21.96191-128.4082-21-188Z"/><path class="cls-5" d="m6223,3205c-6.83887-16.05322,27.33105-44.16992,49-62,31.10645-25.59595,52.16992-42.92798,82-42,22.7168.70654,49.59668,11.97437,50,24,.49609,14.7981-39.72607,12.05713-87,49-27.16162,21.22583-37.55078,40.62573-63,42-10.25049.55347-26.99512-1.59863-31-11Z"/><path class="cls-9" d="m6605.16963,6916.68457c-93.97192,30.42871-144.50171,65.86328-241.16968,54.31543-48.87891-5.83887-100.05371-22.55469-155,4-22.64111,10.94238-46.96094,29.7334-86,31-25.24902.81934-39.67236-6.24316-60-12-101.08838-28.62842-200.76123,16.77979-221,26-41.22168,18.7793-29.7417,24.2334-70,43-66.45996,30.98096-101.50879,17.87207-203,29-139.31982,15.27539-143.59277,47.6875-205,30-47.5918-13.70801-68.10303-39.82373-130-43-15.43848-.79199-71.04834-2.08643-83,24-6.36523,13.89258,4.06738,25.91406-4,41-9.49609,17.75781-34.87256,21.52246-46,23-126.80029,16.83643-440,40-440,40-113.61133,8.40234-120.10303,39.53369-302,96-56.00391,17.38525-123.49902,35.57178-202.30371,51.19141,263.4624,94.38721,547.37744,145.80859,843.30371,145.80859,611.04688,0,1170.88599-219.22949,1605.16968-583.31543Z"/><path class="cls-7" d="m3747,4496c27.15894,20.65137,74.58667-38.07275,271-139,23.04858-11.84326,77.90308-39.55713,139-90,54.87402-45.30518,69.86719-71.86035,77-87,10.42725-22.13232,7.31201-26.77881,27-97,12.59326-44.91626,18.88965-67.37451,28-88,16.11279-36.47974,23.3584-36.76758,56-94,23.97949-42.04492,35.96973-63.06738,46-92,19.48438-56.20215,9.28516-72.92896,29-102,9.62744-14.19629,25.8623-30.5603,80-52,61.62402-24.4043,101.94971-27.50171,235-52,47.78516-8.79858,78.62061-15.03442,111-39,3.93213-2.9104,61.84912-45.93481,52-73-12.38867-34.04443-125.43018-24.82202-177-17-64.20508,9.73853-65.95752,22.28613-136,31-64.50781,8.02515-76.01611-1.00122-124,10-68.00684,15.5918-67.96436,36.23682-118,51-99.62891,29.39575-177.82471-58.25415-217-23-18.90967,17.01709-.2666,37.05762-13,97-16.4873,77.61426-55.10913,78.68823-83,164-21.52368,65.83618-10.81787,102.80371-37,115-28.97803,13.49854-56.802-24.93359-93-16-32.2583,7.96118-49.39624,48.14062-69,114-33.5625,112.75391-37.72583,179.76953-55,278-25.9751,147.7085-49.79907,185.18457-29,201Z"/><path class="cls-5" d="m4836,3531c.68164,8.21436-16.5332,17.56006-150,59-108.66016,33.73779-133.22314,29.98901-179,59-23.18408,14.69287-61.52148,39.60669-87,86-25.44922,46.34009-13.42041,69.22876-29,129-20.91309,80.2334-76.21826,168.01831-112,162-28.15771-4.73584-46.15186-67.88403-43-118,3.49658-55.6001,30.93701-96.02271,85-161,47.09131-56.59814,70.63721-84.89722,104-113,37.41943-31.51953,153.98047-129.70264,306-128,46.40918.51978,103.79199,10.43481,105,25Z"/><path class="cls-4" d="m4271.5,4124.5c10.86377,3.60742,26.11572-25.91772,113-165,67.24072-107.63745,64.89404-100.82104,77-124,37.04004-70.92114,38.5542-95.57568,75-136,18.09668-20.07227,45.81689-50.09985,91-65,30.15332-9.94385,58.43018-9.96655,100-10,33.99756-.02734,41.75098,3.06226,80,2,61.2085-1.69995,74.3457-10.52856,80-15,18.39844-14.55005,33.87109-43.31055,25-66-11.37646-29.0979-57.09131-33.63574-84-30-31.66162,4.27783-49.28516,21.49194-69,35-64.97363,44.51782-99.5791,12.41089-187,43-20.50244,7.17407-126.39795,46.65942-167,140-19.31641,44.40674-.91113,48.25757-21,102-30.83789,82.49854-79.39209,87.28906-108,165-20.5752,55.89087-19.6543,119.13379-5,124Z"/><path class="cls-4" d="m6046,3779c-2.52441-21.25635-46.29541-13.32104-83-50-48.63965-48.60571-25.62354-116.35229-61-129-21.5166-7.69263-51.17188,9.81055-63,31-16.19434,29.01099,1.72217,63.68848,21,101,24.15674,46.75537,49.45605,95.72119,96,101,44.1084,5.00244,92.74609-30.87964,90-54Z"/><path class="cls-4" d="m5250,3063c40.85742-3.01562,79.15479,122.10254,88,151,15.83057,51.71948,35.01709,114.40186,20,193-18.28467,95.69873-79.35498,173.53613-93,168-7.12158-2.8894-1.41455-35.59302,10-101,18.12793-103.87646,26.11621-98.24683,24-123-7.08887-82.927-92.28076-93.90161-100-176-4.94043-52.54688,24.1333-110.01709,51-112Z"/><ellipse class="cls-3" cx="4629.67857" cy="5283.85714" rx="36.32143" ry="39.85714"/><path class="cls-3" d="m4950,4538c9.13916,12.16992,45.87891-.93408,66-12,3.53076-1.94189,43.25586-24.14014,39-39-3.99219-13.93896-46.87939-22.1084-76-4-22.62598,14.06982-37.15771,44.13721-29,55Z"/><path class="cls-3" d="m5418,4367c7.09961,1.00049,8.92383-17.58936,32-53,34.98242-53.68115,69.18311-69.87354,63-84-5.09033-11.62939-32.96826-11.3916-50-7-22.76465,5.87012-35.71094,21.62695-40,27-34.41064,43.1084-18.65771,115.0752-5,117Z"/><path class="cls-3" d="m5348,4303c18.6748-11.25,10.56006-29.23682,34-59,16.86328-21.41162,28.51562-21.56543,33-38,5.03223-18.44287-2.61133-44.0166-16-48-12.98047-3.8623-36.49707,26.70605-83,88-22.33984,29.44531-29.06836,40.04883-25,49,6.42871,14.14551,37.74512,19.59912,57,8Z"/><path class="cls-8" d="m5678,7114c-57.0791,32.05127-90.31494,58.94727-176,98-186.95264,85.20703-328.82031,93.93652-327,109,1.91016,15.80713,158.53955,9.59814,325,3,82.04346-3.25195,123.90918-6.40039,170-12,100.27734-12.18311,162.41504-19.73193,230-52,65.04443-31.05518,67.05176-52.5,152-116,147.5752-110.31494,246.53516-124.09717,242-143-8.12646-33.87109-338.6084-42.76123-616,113Z"/><path class="cls-1" d="m4566.99995,2857c-157.14453,99.52808-370.43945,268.36035-343,322,24.16309,47.23511,216.93066-30.1897,691-137,339.75342-76.54834,361.58594-64.00757,626-125,145.90771-33.65649,338.94824-83.54297,567.68311-158.33081-222.67676-110.35938-464.14844-188.5061-718.32422-228.3606-89.3374,29.48755-158.354,52.22656-208.35889,68.69141-280.36377,92.31348-431.00537,141.46655-615,258Z"/><path class="cls-5" d="m5380,3460c-12.95703-24.56104,75.45361-64.62549,79-156,1.79443-46.23608-19.89258-60.44165-12-108,8.27148-49.83984,43.91992-105.52612,77-104,37.64551,1.73682,70.97998,77.52197,80,131,5.46484,32.40088,1.00586,50.69312,16,80,19.83545,38.76953,45.60742,41.87793,47,59,4.5835,56.35303-265.07861,139.55322-287,98Z"/><path class="cls-7" d="m4635,6683c-64.66553-10.86035-158.12354-34.24463-256-91-123.85254-71.81787-131.36572-125.50586-237-171-18.87939-8.13086-239.48413-99.6792-360,18-47.13379,46.02441-84.77661,129.73389-61,202,31.21338,94.86963,140.20264,84.69141,293,201,139.59863,106.26172,129.22559,176.11035,213,225,91.17969,53.21143,263.56104,63.89697,622-170"/><path class="cls-2" d="m4591,6716c12.26758-18.51514,34.49707-26.70654,76-42,51.05811-18.81445,75.18018-16.146,113-25,91.16016-21.3418,98.73877-71.43164,167-88,83.0459-20.15674,159.21777,30.00146,174,40,104.51953,70.69678,151.93115,226.85303,104,280-37.3623,41.42822-100.56592-15.31543-247,3-152.82861,19.11523-188.03174,93.93701-268,67-96.30176-32.43896-156.48926-178.41895-119-235Z"/><path class="cls-7" d="m3149,5435c-17.52222,110.1001,186.18457,240.06543,348,293,175.55054,57.42773,206.2688-7.05762,356,55,37.12524,15.38672,59.06812,29.22852,361,274,126.62549,102.65332,173.70117,141.51123,243,137,81.96289-5.33545,178.85254-70.28613,183-141,10.01953-170.82959-522.90967-346.17529-572-362-261.80322-84.39404-376.82056-60.12939-494-187-82.09961-88.88965-94.41479-175.26367-182-197-98.02026-24.32568-230.14697,47.23828-243,128Z"/></svg>