<?xml version="1.0" encoding="UTF-8"?><svg id="a" xmlns="http://www.w3.org/2000/svg" viewBox="0 0 10000 10000"><defs><style>.b{fill:#a7a9ac;}.c{fill:#939598;}.d{fill:#808285;}.e{fill:#d1d3d4;}.f{fill:#bcbec0;}</style></defs><circle class="e" cx="5000" cy="5000" r="2500"/><path class="f" d="m4522.22217,6316.6665c-353.18506-444.35938-1453.12378,36.68359-1622.22217-300-75.46851-150.26123,128.04468-277.08887,55.55566-600-49.77271-221.71875-161.97388-234.33154-222.22241-488.88867-17.88501-75.56592-75.26807-318.01611,33.3335-544.44434,78.67749-164.03809,176.38599-177.71484,366.6665-366.66675,97.19116-96.51245,369.21436-366.63599,377.77783-566.66675,4.28076-99.99487-55.86377-215.67651-158.64771-330.36865-522.54858,458.21387-852.46338,1130.76318-852.46338,1880.36865,0,1240.09473,902.91284,2269.29932,2087.18994,2466.07471,41.90771-166.55762,44.46436-364.04053,46.14355-493.85254,3.93018-303.78125,6.56592-507.5-111.11133-655.55566Z"/><path class="f" d="m3400,4205.55566c-29.62744,2.82764-245.77856,26.75732-366.66675,200-155.79102,223.26123-27.79077,514.53711,0,577.77783,23.8999,54.38623,141.47925,321.94922,422.22241,400,326.96655,90.90186,708.72656-121.54639,777.77783-388.88916,96.49707-373.60254-424.54565-827.90332-833.3335-788.88867Z"/><path class="b" d="m3063.54541,4983.3335c152.98804-249.40674,293.63379-710.14014,66.6665-911.11133-102.66675-90.90771-271.72803-120.85107-400-66.6665-10.81616,4.56885-21.19775,9.69189-31.18311,15.31519-128.12036,300.70142-199.02881,631.63306-199.02881,979.12915,0,130.16699,9.95361,258.0083,29.13086,382.80908.36084.17432.71753.354,1.08105.52441,137.5293,64.39551,398.09448-179.52832,533.3335-400Z"/><path class="f" d="m5000,2500c-226.11816,0-445.22314,30.02271-653.5498,86.29395-113.30908,90.61865-195.4458,194.70435-190.89453,308.15039,11.88232,296.19116,611.89307,587.70825,1144.44434,633.3335,588.90186,50.45312,856.88379-220.20239,1155.55566-11.11108,189.72949,132.82397,318.20654,407.69092,288.88867,644.44458-33.16211,267.79932-253.75732,370.08203-200,500,75.52881,182.53369,572.01221,128.12012,622.22217,122.22217,45.16016-5.30469,176.20215-20.70166,317.60938-65.19629-140.03516-1248.01733-1198.85889-2218.13721-2484.27588-2218.13721Z"/><path class="b" d="m5411.11133,3983.33325c-260.7373-110.66479-351.92139-24.78271-577.77783-133.33325-235.35791-113.11719-260.604-266.10083-400-255.55566-131.10693,9.91797-218.27295,153.53125-311.11133,311.11133-135.53418,230.05029-272.65015,462.78516-233.33325,755.55566,69.57031,518.05078,629.18335,759.58691,699.99976,788.88867,140.0376,57.94336,785.82715,293.99561,1155.55566-122.22217,290.62842-327.17139,234.05908-858.54102,0-1122.22217-115.00195-129.55615-275.79053-197.7998-333.33301-222.22241Z"/><path class="f" d="m7428.56982,5595.77148c-154.52197-95.51465-400.32617-110.38281-584.12549-34.66016-186.67383,76.90674-277.33789,234.05518-366.6665,388.88867-84.17334,145.89746-226.46436,392.53125-166.6665,711.11133,5.37207,28.62012,44.1958,235.44287,139.46191,375.25146,479.96143-342.50781,833.72363-850.4624,977.99658-1440.59131Z"/><path class="b" d="m7238.41455,6114.54297c-117.0708-158.32227-275.01514-299.40234-482.85889-353.43164-76.75195-19.95166-235.74463-61.28223-388.88916,11.11084-306.18359,144.73682-267.51855,592.09326-455.55518,622.22217-172.00049,27.55957-248.29883-339.70752-588.88916-444.44434-206.94434-63.63867-395.62549,5.26611-533.3335,55.55566-654.84619,239.14404-882.95068,964.98242-899.99976,1022.22217-9.12744,30.64404-29.13647,97.83691-47.26782,188.22119,346.29297,181.3916,740.35107,284.00098,1158.37891,284.00098,980.22266,0,1828.67627-564.14258,2238.41455-1385.45703Z"/><path class="c" d="m6055.55566,4816.6665c-119.63721-11.24707-215.06738,31.63379-266.66699,55.55566-215.01514,99.68311-199.53467,240.86279-377.77734,366.6665-231.46045,163.36426-385.21191,15.38867-633.3335,188.88916-44.72119,31.27148-249.97705,183.09766-233.3335,355.55566,11.42676,118.40234,123.63525,207.02539,455.55566,366.6665,629.06152,302.55469,943.59277,453.83203,1166.6665,344.44434,292.31494-143.34131,370.36035-530.67822,400-677.77783,25.53809-126.74463,79.63916-395.24463-66.6665-655.55518-28.81152-51.26172-179.59863-319.54688-444.44434-344.44482Z"/><path class="c" d="m4823.18735,4991.60523c98.34039,26.18608,183.00453-16.21254,204.1297-27.6968,82.6306-44.92084,114.96144-118.00523,131.87741-157.84236,20.79229-48.9657,64.24991-151.30779,19.34261-238.14774-30.67084-59.31046-74.59393-57.30696-211.04968-142.03281-172.17611-106.90473-189.14182-164.04706-250.96002-160.51144-96.53923,5.52131-166.12693,151.22477-172.5327,276.00009-9.29376,181.02987,109.93434,405.16095,279.19268,450.23106Z"/><path class="b" d="m3544.44434,4594.44434c-58.21118-12.18018-113.20752,29.27393-133.33325,44.44434-75.76245,57.10693-125.8479,168.59912-88.88892,266.66699,54.63452,144.96875,268.08667,177.30225,344.44458,111.11084,101.24878-87.76807,13.44922-393.83398-122.22241-422.22217Z"/><path class="c" d="m4755.55566,2783.33325c42.34277,88.302,151.10547,69.02417,400,144.44458,327.40723,99.21191,302.06348,181.9209,544.44434,233.33325,62.80664,13.32227,332.32715,64.57666,633.33301-55.55542,85.79199-34.23975,149.26855-59.57764,193.14648-85.55908-422.27344-326.03149-951.72266-519.99658-1526.47949-519.99658-62.71289,0-124.88379,2.3208-186.4375,6.85864-54.58691,95.23682-95.05176,199.22021-58.00684,276.47461Z"/><path class="c" d="m5660.88281,7261.11133c-60.56445-216.26758-340.8418-289.09277-511.11133-333.33398-185.49414-48.19727-400.46191-104.05176-544.44336,22.22266-117.10156,102.69922-151.37012,294.40527-100,433.33301,9.75,26.36963,22.83594,51.44873,38.76172,75.18848,147.82617,27.23877,300.20508,41.47852,455.91016,41.47852,231.42187,0,455.49707-31.44824,668.19141-90.29785,7.92285-50.12793,5.88867-101.46533-7.30859-148.59082Z"/><path class="b" d="m7499.19238,4935.88818c-32.02539,19.58154-71.12109,42.18066-129.92871,40.76025-87.41797-2.1123-112.46484-54.74609-159.0332-40.35156-86.875,26.85254-158.83203,259.21875-54.59375,405.88965,64.89258,91.30762,188.15039,135.43018,301.38184,121.77344,28.21387-150.34229,42.98145-305.42578,42.98145-463.95996,0-21.43457-.27148-42.80615-.80762-64.11182Z"/><path class="b" d="m3397.15628,5647.31541c160.43555-9.87061,228.40601,20.11621,375.03296-28.4834,149.79956-49.65137,201.75439-121.68506,275.34082-94.94482,88.87378,32.29541,146.1438,185.71777,113.93384,303.82422-36.10156,132.37598-158.8186,125.81445-232.61523,289.58203-58.47144,129.7583-3.32812,182.47217-56.96704,246.85742-111.38623,133.70215-459.70776,39.06055-678.85718-75.95605-43.77588-22.9751-430.68359-226.03613-394.02197-398.76953,33.26587-156.73486,402.87744-230.0957,598.15381-242.10986Z"/><path class="d" d="m5994.93408,5615.15381c-94.88965-83.54688-213.99561-72.27002-275.34082-66.46143-67.22119,6.36475-190.75146,18.06104-237.3623,109.18652-39.45166,77.12891.10645,164.42627,9.49414,185.14307,52.2583,115.32422,184.3501,183.61182,308.57178,180.39551,107.85693-2.79248,264.46094-60.90625,289.58203-185.14258,23.46973-116.07031-83.37988-212.93848-94.94482-223.12109Z"/></svg>