<?xml version="1.0" encoding="UTF-8"?><svg id="a" xmlns="http://www.w3.org/2000/svg" xmlns:xlink="http://www.w3.org/1999/xlink" viewBox="0 0 10000 10000"><defs><style>.c{opacity:.3;}.c,.d,.e{fill:#fff;}.d{opacity:.1;}.e{opacity:.2;}.f{fill:url(#b);}</style><linearGradient id="b" x1="2500" y1="5000" x2="7500" y2="5000" gradientTransform="translate(-792.28062 944.2035) rotate(-10.00001)" gradientUnits="userSpaceOnUse"><stop offset="0" stop-color="#3e8499"/><stop offset=".18156" stop-color="#316c7d"/><stop offset=".53352" stop-color="#4b8497"/><stop offset=".56704" stop-color="#528fa3"/><stop offset=".63966" stop-color="#4d899c"/><stop offset=".94134" stop-color="#7bc"/><stop offset="1" stop-color="#9ec2c1"/></linearGradient></defs><circle class="f" cx="5000" cy="5000" r="2500"/><g><path class="c" d="m5984.80762,4826.35205c-383.61279-2175.57764-1135.50586-3861.48627-1679.40039-3765.58313-325.8335,57.45325-503.09521,741.35876-510.38403,1748.26062,15.45093-8.51562,31.00708-16.86279,46.65503-25.05884,18.48486-910.22778,187.8689-1522.24622,489.77637-1575.48059,523.49854-92.30676,1247.19531,1530.38049,1616.42285,3624.37366s244.16602,3866.33936-279.33203,3958.646c-301.93506,53.23926-670.4668-464.03711-999.17578-1313.18848-17.51367-2.31396-34.9707-4.80664-52.36816-7.48145,351.24121,943.75879,751.74316,1525.84668,1077.59131,1468.3916,543.89404-95.90332,673.82812-1937.30225,290.21484-4112.87939Z"/><path class="d" d="m5861.70703,4848.05811c-335.66162-1903.63013-993.56787-3378.80054-1469.47559-3294.88525-244.83105,43.17029-393.79419,490.56616-435.03345,1174.0332,8.75146-4.02197,17.53198-7.99121,26.3374-11.91479,45.35425-634.57153,189.45093-1047.30261,421.71948-1088.25781,465.70996-82.11719,1109.51807,1361.44263,1437.98682,3224.28052,328.46826,1862.83789,217.2124,3439.53564-248.49658,3521.65283-232.34131,40.96777-509.01025-297.81152-768.73584-878.93359-9.61572-.66113-19.21533-1.38086-28.80029-2.15039,272.57324,628.45117,565.66309,998.12598,810.55957,954.94434,475.90723-83.91504,589.59961-1695.13916,253.93848-3598.76904Z"/><path class="e" d="m5824.77637,4854.56982c-321.27539-1822.0459-950.98633-3233.99475-1406.49756-3153.67578-219.54053,38.71082-358.54346,417.00464-407.68042,1002.5332,9.26953-3.99878,18.56812-7.94287,27.89551-11.83252,52.54565-536.31909,186.19458-880.40857,392.80835-916.84009,445.31348-78.52075,1060.92627,1301.81738,1375.00928,3083.07104,314.08301,1781.25391,207.69971,3288.89893-237.61377,3367.41943-206.70166,36.44727-450.09473-241.42969-682.99316-727.81592-10.0918-.4541-20.16943-.96387-30.22998-1.53711,246.51514,533.76514,506.62744,841.93896,726.24658,803.21338,455.51172-80.31836,564.33105-1622.48975,243.05518-3444.53564Z"/></g></svg>