<?xml version="1.0" encoding="UTF-8"?><svg id="Layer_1" xmlns="http://www.w3.org/2000/svg" xmlns:xlink="http://www.w3.org/1999/xlink" viewBox="0 0 10000 10000"><defs><style>.cls-1{fill:#f2f2f2;font-family:RobotoSlab-Regular, 'Roboto Slab';font-size:200px;}.cls-2,.cls-3{fill:none;stroke:#666;stroke-miterlimit:10;}.cls-4{fill:#333;}.cls-5{clip-path:url(#clippath);}.cls-3{stroke-width:10px;}</style><clipPath id="clippath"><circle class="cls-2" cx="5000" cy="5000" r="2500"/></clipPath></defs><circle class="cls-4" cx="5000" cy="5000" r="2500"/><text class="cls-1" transform="translate(6157.45312 6906.27832) rotate(150.30484)"><tspan x="0" y="0">P</tspan></text><text class="cls-1" transform="translate(6050.06934 6967.48145) rotate(153.38054)"><tspan x="0" y="0">L</tspan></text><text class="cls-1" transform="translate(5946.04004 7020.2002) rotate(156.8006)"><tspan x="0" y="0">A</tspan></text><text class="cls-1" transform="translate(5817.70117 7075.15039) rotate(160.10779)"><tspan x="0" y="0">C</tspan></text><text class="cls-1" transform="translate(5702.27344 7117.03516) rotate(163.3104)"><tspan x="0" y="0">E</tspan></text><text class="cls-1" transform="translate(5583.6377 7153.14746) rotate(166.86655)"><tspan x="0" y="0">H</tspan></text><text class="cls-1" transform="translate(5436.99805 7187.11719) rotate(170.46973)"><tspan x="0" y="0">O</tspan></text><text class="cls-1" transform="translate(5309.94238 7208.33984) rotate(173.60516)"><tspan x="0" y="0">L</tspan></text><text class="cls-1" transform="translate(5195.63477 7221.42676) rotate(176.72431)"><tspan x="0" y="0">D</tspan></text><text class="cls-1" transform="translate(5064.44434 7227.89258) rotate(179.07111)"><tspan x="0" y="0">E</tspan></text><text class="cls-1" transform="translate(4942.27246 7229.18652) rotate(-176.83339)"><tspan x="0" y="0">R</tspan></text><text class="cls-1" transform="translate(4809.58057 7221.03418) rotate(-174.53394)"><tspan x="0" y="0"> </tspan></text><text class="cls-1" transform="translate(4762.32764 7217.45996) rotate(-172.19587)"><tspan x="0" y="0">T</tspan></text><text class="cls-1" transform="translate(4629.56641 7199.22168) rotate(-168.86717)"><tspan x="0" y="0">E</tspan></text><text class="cls-1" transform="translate(4507.75439 7175.69824) rotate(-165.37544)"><tspan x="0" y="0">X</tspan></text><text class="cls-1" transform="translate(4366.77441 7138.83203) rotate(-161.75458)"><tspan x="0" y="0">T</tspan></text><text class="cls-1" transform="translate(4239.65625 7097.23242) rotate(-158.14343)"><tspan x="0" y="0">U</tspan></text><text class="cls-1" transform="translate(4105.05859 7043.13477) rotate(-154.5655)"><tspan x="0" y="0">R</tspan></text><text class="cls-1" transform="translate(3985.8877 6986.44043) rotate(-151.26126)"><tspan x="0" y="0">E</tspan></text><g><g class="cls-5"><g><line class="cls-3" x1="2500" y1="2500" x2="7500" y2="2500"/><line class="cls-3" x1="2500" y1="6944.44444" x2="7500" y2="6944.44444"/><line class="cls-3" x1="2500" y1="6388.88889" x2="7500" y2="6388.88889"/><line class="cls-3" x1="2500" y1="5833.33333" x2="7500" y2="5833.33333"/><line class="cls-3" x1="2500" y1="5277.77778" x2="7500" y2="5277.77778"/><line class="cls-3" x1="2500" y1="4722.22222" x2="7500" y2="4722.22222"/><line class="cls-3" x1="2500" y1="4166.66667" x2="7500" y2="4166.66667"/><line class="cls-3" x1="2500" y1="3611.11111" x2="7500" y2="3611.11111"/><line class="cls-3" x1="2500" y1="3055.55556" x2="7500" y2="3055.55556"/><line class="cls-3" x1="2500" y1="7500" x2="7500" y2="7500"/><line class="cls-3" x1="2500" y1="2500" x2="2500" y2="7500"/><line class="cls-3" x1="6944.44444" y1="2500" x2="6944.44444" y2="7500"/><line class="cls-3" x1="6388.88889" y1="2500" x2="6388.88889" y2="7500"/><line class="cls-3" x1="5833.33333" y1="2500" x2="5833.33333" y2="7500"/><line class="cls-3" x1="5277.77778" y1="2500" x2="5277.77778" y2="7500"/><line class="cls-3" x1="4722.22222" y1="2500" x2="4722.22222" y2="7500"/><line class="cls-3" x1="4166.66667" y1="2500" x2="4166.66667" y2="7500"/><line class="cls-3" x1="3611.11111" y1="2500" x2="3611.11111" y2="7500"/><line class="cls-3" x1="3055.55556" y1="2500" x2="3055.55556" y2="7500"/><line class="cls-3" x1="7500" y1="2500" x2="7500" y2="7500"/></g></g><circle class="cls-2" cx="5000" cy="5000" r="2500"/></g><text class="cls-1" transform="translate(6072.15847 3044.47643) rotate(30.30482)"><tspan x="0" y="0">P</tspan></text><text class="cls-1" transform="translate(6178.85385 3106.87193) rotate(33.38053)"><tspan x="0" y="0">L</tspan></text><text class="cls-1" transform="translate(6276.5243 3170.60454) rotate(36.80058)"><tspan x="0" y="0">A</tspan></text><text class="cls-1" transform="translate(6388.28203 3254.27412) rotate(40.10777)"><tspan x="0" y="0">C</tspan></text><text class="cls-1" transform="translate(6482.2692 3333.29506) rotate(43.31038)"><tspan x="0" y="0">E</tspan></text><text class="cls-1" transform="translate(6572.86127 3417.98045) rotate(46.86653)"><tspan x="0" y="0">H</tspan></text><text class="cls-1" transform="translate(6675.59978 3527.98922) rotate(50.46971)"><tspan x="0" y="0">O</tspan></text><text class="cls-1" transform="translate(6757.50701 3627.4113) rotate(53.60514)"><tspan x="0" y="0">L</tspan></text><text class="cls-1" transform="translate(6825.99445 3719.86112) rotate(56.7243)"><tspan x="0" y="0">D</tspan></text><text class="cls-1" transform="translate(6897.18927 3830.24244) rotate(59.07109)"><tspan x="0" y="0">E</tspan></text><text class="cls-1" transform="translate(6959.39583 3935.3994) rotate(63.16659)"><tspan x="0" y="0">R</tspan></text><text class="cls-1" transform="translate(7018.68168 4054.3901) rotate(65.46604)"><tspan x="0" y="0"> </tspan></text><text class="cls-1" transform="translate(7039.2128 4097.09945) rotate(67.80411)"><tspan x="0" y="0">T</tspan></text><text class="cls-1" transform="translate(7089.79864 4221.19317) rotate(71.13282)"><tspan x="0" y="0">E</tspan></text><text class="cls-1" transform="translate(7130.33279 4338.44718) rotate(74.62454)"><tspan x="0" y="0">X</tspan></text><text class="cls-1" transform="translate(7168.89575 4478.97252) rotate(78.24541)"><tspan x="0" y="0">T</tspan></text><text class="cls-1" transform="translate(7196.42856 4609.85988) rotate(81.85655)"><tspan x="0" y="0">U</tspan></text><text class="cls-1" transform="translate(7216.87749 4753.4737) rotate(85.43448)"><tspan x="0" y="0">R</tspan></text><text class="cls-1" transform="translate(7227.36425 4885.02589) rotate(88.73872)"><tspan x="0" y="0">E</tspan></text><text class="cls-1" transform="translate(2770.38734 5049.24433) rotate(-89.69516)"><tspan x="0" y="0">P</tspan></text><text class="cls-1" transform="translate(2771.07578 4925.64568) rotate(-86.61946)"><tspan x="0" y="0">L</tspan></text><text class="cls-1" transform="translate(2777.43465 4809.19429) rotate(-83.1994)"><tspan x="0" y="0">A</tspan></text><text class="cls-1" transform="translate(2794.01582 4670.57448) rotate(-79.89221)"><tspan x="0" y="0">C</tspan></text><text class="cls-1" transform="translate(2815.45641 4549.66875) rotate(-76.6896)"><tspan x="0" y="0">E</tspan></text><text class="cls-1" transform="translate(2843.50011 4428.87103) rotate(-73.13345)"><tspan x="0" y="0">H</tspan></text><text class="cls-1" transform="translate(2887.40129 4284.89251) rotate(-69.53027)"><tspan x="0" y="0">O</tspan></text><text class="cls-1" transform="translate(2932.54976 4164.24775) rotate(-66.39484)"><tspan x="0" y="0">L</tspan></text><text class="cls-1" transform="translate(2978.36997 4058.71099) rotate(-63.27568)"><tspan x="0" y="0">D</tspan></text><text class="cls-1" transform="translate(3038.36562 3941.86384) rotate(-60.92889)"><tspan x="0" y="0">E</tspan></text><text class="cls-1" transform="translate(3098.33097 3835.41292) rotate(-56.83339)"><tspan x="0" y="0">R</tspan></text><text class="cls-1" transform="translate(3171.73706 3724.57454) rotate(-54.53394)"><tspan x="0" y="0"> </tspan></text><text class="cls-1" transform="translate(3198.45888 3685.43942) rotate(-52.19587)"><tspan x="0" y="0">T</tspan></text><text class="cls-1" transform="translate(3280.63431 3579.58396) rotate(-48.86716)"><tspan x="0" y="0">E</tspan></text><text class="cls-1" transform="translate(3361.91221 3485.85338) rotate(-45.37544)"><tspan x="0" y="0">X</tspan></text><text class="cls-1" transform="translate(3464.32928 3382.19425) rotate(-41.75457)"><tspan x="0" y="0">T</tspan></text><text class="cls-1" transform="translate(3563.91468 3292.9065) rotate(-38.14343)"><tspan x="0" y="0">U</tspan></text><text class="cls-1" transform="translate(3678.06345 3203.39034) rotate(-34.5655)"><tspan x="0" y="0">R</tspan></text><text class="cls-1" transform="translate(3786.74763 3128.53248) rotate(-31.26126)"><tspan x="0" y="0">E</tspan></text></svg>