<?xml version="1.0" encoding="UTF-8"?><svg id="a" xmlns="http://www.w3.org/2000/svg" viewBox="0 0 20 20"><defs><style>.b{fill:#b4b4b4;}</style></defs><path class="b" d="m1,19.5c-.09131,0-.18262-.02539-.2627-.07422-.14746-.0918-.2373-.25293-.2373-.42578V1c0-.17334.08984-.33398.2373-.42529.08008-.0498.17139-.07471.2627-.07471.07666,0,.15283.01758.22363.05273l18,9c.16895.08496.27637.25781.27637.44727s-.10742.3623-.27637.44727L1.22363,19.44727c-.0708.03516-.14697.05273-.22363.05273Z"/><path class="b" d="m1,1l18,9L1,19V1M1.00005,0C.81719,0,.63487.05009.47427.14935c-.29482.18221-.47427.50407-.47427.85065v18c0,.34658.17945.66844.47427.85065.16058.09925.34294.14935.52578.14935.15284,0,.30602-.035.44716-.10557l18-9c.33879-.16939.55279-.51566.55279-.89443s-.214-.72504-.55279-.89443L1.44721.10557C1.30609.03501,1.15287,0,1.00005,0h0Z"/></svg>