<?xml version="1.0" encoding="UTF-8"?><svg id="a" xmlns="http://www.w3.org/2000/svg" viewBox="0 0 100 100"><defs><style>.b{fill:#fcfefd;}.c{fill:#ff0705;}.d{fill:#ce0000;}.e{fill:none;stroke:#000;stroke-miterlimit:10;stroke-width:3px;}.f{fill:#98c7dc;}.g{fill:#4a646e;}</style></defs><g><path class="c" d="m26.6484,80.83736c-3.0461.90728-8.38083,1.95107-12.26374-.79121-3.68373-2.60161-3.91253-9.15442-4.21978-22.15385-.37848-16.01328,1.56577-20.15438,4.35165-21.89011,1.28514-.8007,3.49503-1.55411,4.35165-1.84615,3.45209-1.17691,6.47702-1.57281,8.57143-1.71429"/><path class="d" d="m18.34064,42.0769c-3.08887.32867-5.66315,1.13904-7.64978,1.97144-.46802,3.19299-.67316,7.61829-.526,13.84393.30725,12.99945.53601,19.55225,4.21979,22.15387,3.88287,2.74225,9.21759,1.69849,12.26373.7912l.625-38.23145c-2.13708-.48572-5.23224-.92279-8.93274-.52899Z"/><path class="e" d="m26.6484,80.83736c-3.0461.90728-8.38083,1.95107-12.26374-.79121-3.68373-2.60161-3.91253-9.15442-4.21978-22.15385-.37848-16.01328,1.56577-20.15438,4.35165-21.89011,1.28514-.8007,3.49503-1.55411,4.35165-1.84615,3.45209-1.17691,6.47702-1.57281,8.57143-1.71429"/></g><g><path class="c" d="m73.4615,96.26593c2.80537-14.00961,6.79334-37.96291,5.80219-60.13187-.15026-3.36082-.5407-9.49318-4.21978-15.82418-4.04821-6.9662-13.23549-16.18695-24.65934-15.03297-7.21069.72839-12.15498,5.34942-13.45055,6.59341-6.10504,5.862-7.7093,13.48935-8.57143,19.38462-3.55741,24.32578-.1586,57.99988.65934,65.67033,0,0,4.74725,1.58242,9.23077,1.58242s9.62637-1.84615,9.62637-1.84615l1.58242-14.84958h7.78022l1.58242,15.37705s4.15389,1.45901,7.58246,1.32715,7.0549-2.25022,7.0549-2.25022Z"/><path class="d" d="m64.09888,72.00219c-1.30176.37311-10.19965,2.77832-18.59338-2.24176-5.29889-3.16913-7.78632-7.68243-8.96704-9.89014-2.76752-5.17456-3.20459-9.95325-3.42859-13.5824-.7085-11.48187.03552-22.78882.88342-31.0144-3.72882,5.21466-4.92755,11.17377-5.63068,15.98145-3.55737,24.32581-.15857,57.99988.65936,65.67035,0,0,4.74725,1.5824,9.23077,1.5824s9.6264-1.84613,9.6264-1.84613l1.5824-14.84961h7.78021l1.5824,15.37708s4.1539,1.45901,7.58249,1.32711c3.42853-.13184,7.0549-2.25021,7.0549-2.25021,1.80524-9.01501,4.09821-22.14923,5.24097-36.27417-2.51233,4.36774-7.03821,9.8421-14.60364,12.01044Z"/><path class="e" d="m73.4615,96.26593c2.80537-14.00961,6.79334-37.96291,5.80219-60.13187-.15026-3.36082-.5407-9.49318-4.21978-15.82418-4.04821-6.9662-13.23549-16.18695-24.65934-15.03297-7.21069.72839-12.15498,5.34942-13.45055,6.59341-6.10504,5.862-7.7093,13.48935-8.57143,19.38462-3.55741,24.32578-.1586,57.99988.65934,65.67033,0,0,4.74725,1.58242,9.23077,1.58242s9.62637-1.84615,9.62637-1.84615l1.58242-14.84958h7.78022l1.58242,15.37705s4.15389,1.45901,7.58246,1.32715,7.0549-2.25022,7.0549-2.25022Z"/></g><g><path class="g" d="m44.49003,24.41865c-3.56879,4.95689-2.81565,12.6926,1.14732,17.25387,2.98833,3.43948,6.98412,4.13279,11.52813,4.85239,5.16415.8178,20.36183,3.22451,25.26308-5.64359,2.79573-5.05846,1.38818-12.24173-2.37363-16.61539-4.63475-5.38859-11.71498-5.20061-18.85714-5.01099-7.16846.19032-13.24321.3516-16.70776,5.16371Z"/><path class="f" d="m55.87522,36.32576c1.28717.50891,2.74365.65002,5.3916.90503,1.9823.19086,6.01843.56702,10.38464-.19781,5.05078-.88477,9.09723-3.04919,11.98657-5.0564-.51459-2.8537-1.77112-5.60754-3.58002-7.71063-4.63477-5.38861-11.71497-5.20062-18.85712-5.01099-5.03351.13361-9.52319.25989-12.95312,1.98511.43469,3.89923,1.98962,12.85663,7.62744,15.08569Z"/><path class="b" d="m71.25583,31.49452c1.87952-.27344,5.30511-1.22131,5.43958-2.76923.16766-1.93018-4.81763-4.3822-9.40082-4.67773-3.43909-.2218-8.25781.66711-8.50031,2.40302-.2998,2.14642,6.34918,5.93317,12.46155,5.04395Z"/><path class="e" d="m44.49003,24.41865c-3.56879,4.95689-2.81565,12.6926,1.14732,17.25387,2.98833,3.43948,6.98412,4.13279,11.52813,4.85239,5.16415.8178,20.36183,3.22451,25.26308-5.64359,2.79573-5.05846,1.38818-12.24173-2.37363-16.61539-4.63475-5.38859-11.71498-5.20061-18.85714-5.01099-7.16846.19032-13.24321.3516-16.70776,5.16371Z"/></g></svg>