<?xml version="1.0" encoding="UTF-8"?><svg id="Layer_1" xmlns="http://www.w3.org/2000/svg" viewBox="0 0 100 100"><defs><style>.cls-1{stroke:#4d4d4d;stroke-linecap:round;}.cls-1,.cls-2,.cls-3{stroke-miterlimit:10;stroke-width:.25px;}.cls-1,.cls-3{fill:none;}.cls-4{fill:#75631b;}.cls-5{fill:#2d244d;}.cls-6{fill:gray;}.cls-2{fill:#666;stroke:gray;}.cls-7{fill:#999;}.cls-8{fill:#b3b3b3;}.cls-3{stroke:#666;}</style></defs><polyline class="cls-1" points="70 35 50 47 30 35"/><path class="cls-8" d="m53.58948,10.26837l-.58948-1.76837v-1.73242c0-.16718-.08356-.3233-.22266-.41602l-1.27734-.85156-1.5-4-1.5,4-1.27734.85156c-.1391.09271-.22266.24884-.22266.41602v1.73242l-.58948,1.76837c-.27191.81573-.41052,1.66998-.41052,2.52985v1.70178h8v-1.70178c0-.85986-.13861-1.71411-.41052-2.52985Zm-1.17969,3.23163h-4.81958c-.30896,0-.54395-.27747-.49316-.58221l.62445-3.74658c.16071-.96442.99506-1.6712,1.97278-1.6712h.61145c.97772,0,1.81207.70679,1.97278,1.6712l.62445,3.74658c.05078.30475-.1842.58221-.49316.58221Z"/><polygon class="cls-7" points="54.33013 42.5 45.66987 42.5 41.33975 50 45.66987 57.5 54.33013 57.5 58.66025 50 54.33013 42.5"/><circle class="cls-8" cx="50" cy="50" r="6"/><line class="cls-3" x1="50" y1="55" x2="50" y2="50"/><line class="cls-3" x1="45.66987" y1="47.5" x2="50" y2="50"/><line class="cls-3" x1="54.33013" y1="47.5" x2="50" y2="50"/><circle class="cls-7" cx="50" cy="50" r=".75"/><circle class="cls-2" cx="53.5" cy="44" r=".5"/><circle class="cls-2" cx="46.5" cy="56" r=".5"/><polygon class="cls-5" points="44.75 41.4502 44.7998 32.5 55.25 32.5498 55.2002 41.4502 44.75 41.4502"/><path class="cls-4" d="m55.15,32.6v8.8h-10.3v-8.8h10.3m.1-.1h-10.5v9h10.5v-9h0Z"/><polygon class="cls-5" points="44 32.4502 44.0498 23.5 46 23.5498 45.9502 23.75 54 23.7998 54.0498 23.5 56 23.5498 55.9502 32.4502 44 32.4502"/><path class="cls-4" d="m55.9,23.6v8.8h-11.8v-8.8h1.8v.25h8.2v-.25h1.8m.1-.1h-2v.25h-8v-.25h-2v9h12v-9h0Z"/><polygon class="cls-5" points="44 23.4502 44.0498 14.5 56 14.5498 55.9502 23.4502 54 23.4502 54.0498 23.25 46 23.2002 45.9502 23.5 44 23.4502"/><path class="cls-4" d="m55.9,14.6v8.8h-1.8v-.25h-8.2v.25h-1.8v-8.8h11.8m.1-.1h-12v9h2v-.25h8v.25h2v-9h0Z"/><rect class="cls-6" x="45.75" y="41" width=".5" height="2" rx=".25" ry=".25"/><rect class="cls-6" x="45.75" y="32" width=".5" height="1" rx=".25" ry=".25"/><rect class="cls-6" x="44.75" y="23" width=".5" height="1" rx=".25" ry=".25"/><rect class="cls-6" x="45.75" y="14" width=".5" height="1" rx=".25" ry=".25"/><rect class="cls-6" x="53.75" y="41" width=".5" height="2" rx=".25" ry=".25"/><rect class="cls-6" x="53.75" y="32" width=".5" height="1" rx=".25" ry=".25"/><rect class="cls-6" x="54.75" y="23" width=".5" height="1" rx=".25" ry=".25"/><rect class="cls-6" x="53.75" y="14" width=".5" height="1" rx=".25" ry=".25"/><polygon class="cls-5" points="32.26318 54.17773 40.03857 49.74658 45.22021 58.82227 37.48828 63.22852 32.26318 54.17773"/><path class="cls-4" d="m39.97718,49.83997l5.15,8.92006-7.62102,4.4-5.15-8.92006,7.62102-4.4m.0366-.1366l-7.79422,4.5,5.25,9.09326,7.79422-4.5-5.25-9.09326h0Z"/><polygon class="cls-5" points="29.09375 66.68848 29.2915 66.63184 25.31006 59.63574 25.02539 59.74316 24.09375 58.02832 31.86963 53.59668 37.80127 63.97168 30.06885 68.37793 29.09375 66.68848"/><path class="cls-4" d="m31.80795,53.69045l5.9,10.2191-7.62102,4.4-.9-1.55885.1299-.075.0866-.05-.05-.0866-4-6.9282-.05-.0866-.0866.05-.1299.075-.9-1.55885,7.62102-4.4m.0366-.1366l-7.79422,4.5,1,1.73205.2165-.125,4,6.9282-.2165.125,1,1.73205,7.79422-4.5-6-10.3923h0Z"/><polygon class="cls-5" points="16.29932 62.52832 24.0752 58.09668 25.00684 59.81152 24.80908 59.86816 28.79053 66.86426 29.0752 66.75684 30.00684 68.47168 22.27441 72.87793 16.29932 62.52832"/><path class="cls-4" d="m24.01372,58.19045l.9,1.55885-.1299.075-.0866.05.05.0866,4,6.9282.05.0866.0866-.05.1299-.075.9,1.55885-7.62103,4.4-5.9-10.2191,7.62103-4.4m.0366-.1366l-7.79423,4.5,6,10.3923,7.79423-4.5-1-1.73205-.2165.125-4-6.9282.2165-.125-1-1.73205h0Z"/><polygon class="cls-5" points="8.50537 67.02832 16.28076 62.59668 22.2124 72.97168 14.48047 77.37793 8.50537 67.02832"/><path class="cls-4" d="m16.21949,62.69045l5.9,10.2191-7.62102,4.4-5.9-10.21909,7.62102-4.40001m.0366-.1366l-7.79422,4.5,6,10.3923,7.79422-4.5-6-10.3923h0Z"/><rect class="cls-6" x="44.0718" y="57.2141" width="2" height=".5" rx=".25" ry=".25" transform="translate(-22.69359 30.23467) rotate(-30.00003)"/><rect class="cls-6" x="36.34456" y="61.9641" width="1" height=".5" rx=".25" ry=".25" transform="translate(-26.17077 26.75731) rotate(-29.99993)"/><rect class="cls-6" x="29.05033" y="67.33013" width="1" height=".5" rx=".25" ry=".25" transform="translate(-29.8311 23.82922) rotate(-30.00003)"/><rect class="cls-6" x="20.7561" y="70.9641" width="1" height=".5" rx=".25" ry=".25" transform="translate(-32.75921 20.16886) rotate(-29.99993)"/><rect class="cls-6" x="40.0718" y="50.2859" width="2" height=".5" rx=".25" ry=".25" transform="translate(-19.76539 27.30646) rotate(-30.00003)"/><rect class="cls-6" x="32.34456" y="55.0359" width="1" height=".5" rx=".25" ry=".25" transform="translate(-23.24263 23.82922) rotate(-30.00003)"/><rect class="cls-6" x="24.05033" y="58.66987" width="1" height=".5" rx=".25" ry=".25" transform="translate(-26.17084 20.16896) rotate(-30.00003)"/><rect class="cls-6" x="16.7561" y="64.0359" width="1" height=".5" rx=".25" ry=".25" transform="translate(-29.8311 17.24075) rotate(-30.00003)"/><polygon class="cls-5" points="54.76172 58.75391 60.0293 49.72803 67.75488 54.24609 62.51172 63.22852 54.76172 58.75391"/><path class="cls-4" d="m60.02282,49.83997l7.62102,4.4-5.15001,8.92006-7.62102-4.4,5.15-8.92006m-.0366-.1366l-5.25,9.09326,7.79422,4.5,5.25-9.09326-7.79422-4.5h0Z"/><polygon class="cls-5" points="62.18066 63.90332 68.19824 53.5791 75.92383 58.09668 74.90625 59.76074 74.75879 59.61816 70.69043 66.56348 70.92383 66.75684 69.93164 68.37891 62.18066 63.90332"/><path class="cls-4" d="m68.19204,53.69045l7.62104,4.4-.9,1.55885-.12991-.075-.0866-.05-.05.0866-4,6.9282-.05.0866.0866.05.12991.075-.9,1.55885-7.62103-4.4,5.89999-10.2191m-.0366-.1366l-5.99999,10.3923,7.79423,4.5,1-1.73205-.21651-.125,4-6.9282.21651.125,1-1.73205-7.79424-4.5h0Z"/><polygon class="cls-5" points="69.97461 68.40332 70.99219 66.73926 71.14062 66.88184 75.20898 59.93652 74.97461 59.74316 75.99219 58.0791 83.71875 62.59668 77.72559 72.87793 69.97461 68.40332"/><path class="cls-4" d="m75.98627,58.19045l7.62103,4.4-5.9,10.2191-7.62103-4.4.9-1.55885.1299.075.0866.05.05-.0866,4-6.9282.05-.0866-.0866-.05-.12991-.075.9-1.55885m-.0366-.1366l-1,1.73205.2165.125-4,6.9282-.2165-.125-1,1.73205,7.79423,4.5,6-10.3923-7.79423-4.5h0Z"/><polygon class="cls-5" points="77.76953 72.90332 83.78711 62.5791 91.5127 67.09668 85.51953 77.37793 77.76953 72.90332"/><path class="cls-4" d="m83.7805,62.69045l7.62103,4.40001-5.9,10.21909-7.62103-4.4,5.9-10.2191m-.0366-.1366l-6,10.3923,7.79423,4.5,6-10.3923-7.79423-4.5h0Z"/><rect class="cls-6" x="58.6782" y="49.5359" width=".5" height="2" rx=".25" ry=".25" transform="translate(-14.30126 76.30129) rotate(-60.00002)"/><rect class="cls-6" x="66.90544" y="54.7859" width=".5" height="1" rx=".25" ry=".25" transform="translate(-14.30129 85.80122) rotate(-59.99997)"/><rect class="cls-6" x="75.19967" y="58.41987" width=".5" height="1" rx=".25" ry=".25" transform="translate(-13.30129 94.80122) rotate(-59.99997)"/><rect class="cls-6" x="82.4939" y="63.7859" width=".5" height="1" rx=".25" ry=".25" transform="translate(-14.30129 103.80121) rotate(-59.99997)"/><rect class="cls-6" x="54.6782" y="56.4641" width=".5" height="2" rx=".25" ry=".25" transform="translate(-22.30128 76.30122) rotate(-59.99997)"/><rect class="cls-6" x="62.90544" y="61.7141" width=".5" height="1" rx=".25" ry=".25" transform="translate(-22.30121 85.80149) rotate(-60.00015)"/><rect class="cls-6" x="70.19967" y="67.08013" width=".5" height="1" rx=".25" ry=".25" transform="translate(-23.3012 94.80151) rotate(-60.00015)"/><rect class="cls-6" x="78.4939" y="70.7141" width=".5" height="1" rx=".25" ry=".25" transform="translate(-22.30129 103.80121) rotate(-59.99996)"/><ellipse class="cls-7" cx="50" cy="2.5" rx=".5" ry="1"/></svg>