<?xml version="1.0" encoding="UTF-8"?><svg id="a" xmlns="http://www.w3.org/2000/svg" xmlns:xlink="http://www.w3.org/1999/xlink" viewBox="0 0 100 100"><defs><style>.c{fill:#f0f0f0;}.d{fill:#d1b452;}.e{fill:#b4b4b4;}.f{fill:#0a0a0a;}.g{stroke-linecap:round;}.g,.h,.i,.j,.k,.l,.m,.n,.o,.p{fill:none;}.g,.i,.j,.l,.o,.p{stroke-miterlimit:10;}.g,.n{stroke:#bebebe;stroke-width:1.25px;}.q{clip-path:url(#b);}.r{fill:#c3c3c3;}.h{stroke:#ebebeb;}.h,.j,.m{stroke-width:.5px;}.h,.m,.n{stroke-linejoin:round;}.s{fill:#e6e6e6;}.t{fill:#969696;}.u{fill:gray;}.i{stroke-width:.2px;}.i,.l{stroke:gray;}.j{stroke:#aaa;}.v{fill:#999;}.w{fill:#ccc;}.l,.o,.p{stroke-width:.25px;}.m{stroke:#141414;}.x{fill:#919191;}.y{fill:#1e1e1e;}.o{stroke:#737373;}.z{fill:#666;}.p{stroke:#8c8c8c;}</style><clipPath id="b"><path class="k" d="m48.45312,89.875s-2.57812,4.63235-2.57812,8.75h8.25c0-4.11765-2.57812-8.75-2.57812-8.75"/></clipPath></defs><rect class="s" x="64.25" y="21" width="1.5" height="24" rx=".75" ry=".75"/><rect class="z" x="48.75" y="86" width="2.5" height="4"/><circle class="s" cx="48.25" cy="88.25" r="1"/><rect class="z" x="49" y="86.5" width="1" height="3"/><path class="v" d="m48.5,90s-2.5,4.5-2.5,8.5h8c0-4-2.5-8.5-2.5-8.5"/><g class="q"><line class="i" x1="45.5" y1="92.25" x2="54.5" y2="92.25"/><line class="i" x1="45.5" y1="97.70455" x2="54.5" y2="97.70455"/><line class="i" x1="45.5" y1="97.15909" x2="54.5" y2="97.15909"/><line class="i" x1="45.5" y1="96.61364" x2="54.5" y2="96.61364"/><line class="i" x1="45.5" y1="96.06818" x2="54.5" y2="96.06818"/><line class="i" x1="45.5" y1="95.52273" x2="54.5" y2="95.52273"/><line class="i" x1="45.5" y1="94.97727" x2="54.5" y2="94.97727"/><line class="i" x1="45.5" y1="94.43182" x2="54.5" y2="94.43182"/><line class="i" x1="45.5" y1="93.88636" x2="54.5" y2="93.88636"/><line class="i" x1="45.5" y1="93.34091" x2="54.5" y2="93.34091"/><line class="i" x1="45.5" y1="92.79545" x2="54.5" y2="92.79545"/><line class="i" x1="45.5" y1="98.25" x2="54.5" y2="98.25"/><line class="i" x1="45.5" y1="91.25" x2="54.5" y2="91.25"/><line class="i" x1="45.5" y1="91.75" x2="54.5" y2="91.75"/></g><polygon class="e" points="38 78 48 86 52 86 62 78 38 78"/><line class="j" x1="52" y1="86" x2="62" y2="78"/><line class="j" x1="51.5" y1="86" x2="59" y2="78"/><line class="j" x1="51" y1="86" x2="56" y2="78"/><line class="j" x1="50.5" y1="86" x2="53" y2="78"/><line class="j" x1="50" y1="86" x2="50" y2="78"/><line class="j" x1="49.5" y1="86" x2="47" y2="78"/><line class="j" x1="49" y1="86" x2="44" y2="78"/><line class="j" x1="48.5" y1="86" x2="41" y2="78"/><line class="j" x1="48" y1="86" x2="38" y2="78"/><circle class="t" cx="54" cy="85" r="1"/><circle class="t" cx="46" cy="85" r="1"/><line class="l" x1="49" y1="86.75" x2="49" y2="89.75"/><line class="o" x1="49.5" y1="89.75" x2="49.5" y2="86.75"/><line class="p" x1="50" y1="89.75" x2="50" y2="86.75"/><path class="u" d="m44.2127,83h11.57461c.23632,0,.34071.29759.15617.44522l-4.44348,3.55478h-3l-4.44348-3.55478c-.18453-.14763-.08015-.44522.15617-.44522Z"/><path class="r" d="m35.75,73h0v4.5h-1.75c-.13798,0-.25-.11202-.25-.25v-2.25c0-1.10383.89617-2,2-2Z"/><path class="w" d="m35.75,73h0v4.5h-1.25c-.13798,0-.25-.11202-.25-.25v-2.75c0-.82787.67213-1.5,1.5-1.5Z"/><path class="r" d="m64.5,73h1.75v4.5h0c-1.10383,0-2-.89617-2-2v-2.25c0-.13798.11202-.25.25-.25Z" transform="translate(130.5 150.5) rotate(180)"/><path class="w" d="m64.5,73h1.25v4.5h0c-.82787,0-1.5-.67213-1.5-1.5v-2.75c0-.13798.11202-.25.25-.25Z" transform="translate(130 150.5) rotate(180)"/><path class="n" d="m50,90c.55228,0,1-.44772,1-1v-3l5-8"/><rect class="d" x="35" y="78" width="30" height=".5"/><path class="c" d="m59.69098,2.75h-19.38197c-.18938,0-.36252.107-.44721.27639l-3.8618,7.72361h28l-3.8618-7.72361c-.08469-.16939-.25783-.27639-.44721-.27639Z"/><polygon class="f" points="65 12.75 64 10.75 36 10.75 35 12.75 35 18.25 65 18.25 65 12.75"/><rect class="c" x="35" y="18" width="30" height="60"/><rect class="h" x="35" y="68" width="30" height="10"/><line class="h" x1="63.125" y1="68" x2="63.125" y2="78"/><line class="h" x1="61.25" y1="68" x2="61.25" y2="78"/><line class="h" x1="59.375" y1="68" x2="59.375" y2="78"/><line class="h" x1="57.5" y1="68" x2="57.5" y2="78"/><line class="h" x1="55.625" y1="68" x2="55.625" y2="78"/><line class="h" x1="53.75" y1="68" x2="53.75" y2="78"/><line class="h" x1="51.875" y1="68" x2="51.875" y2="78"/><line class="h" x1="50" y1="68" x2="50" y2="78"/><line class="h" x1="48.125" y1="68" x2="48.125" y2="78"/><line class="h" x1="46.25" y1="68" x2="46.25" y2="78"/><line class="h" x1="44.375" y1="68" x2="44.375" y2="78"/><line class="h" x1="42.5" y1="68" x2="42.5" y2="78"/><line class="h" x1="40.625" y1="68" x2="40.625" y2="78"/><line class="h" x1="38.75" y1="68" x2="38.75" y2="78"/><line class="h" x1="36.875" y1="68" x2="36.875" y2="78"/><polyline class="m" points="65 18 65 13 35 13 35 18"/><line class="m" x1="63.125" y1="13" x2="63.125" y2="18"/><line class="m" x1="61.25" y1="13" x2="61.25" y2="18"/><line class="m" x1="59.375" y1="13" x2="59.375" y2="18"/><line class="m" x1="57.5" y1="13" x2="57.5" y2="18"/><line class="m" x1="55.625" y1="13" x2="55.625" y2="18"/><line class="m" x1="53.75" y1="13" x2="53.75" y2="18"/><line class="m" x1="51.875" y1="13" x2="51.875" y2="18"/><line class="m" x1="50" y1="13" x2="50" y2="18"/><line class="m" x1="48.125" y1="13" x2="48.125" y2="18"/><line class="m" x1="46.25" y1="13" x2="46.25" y2="18"/><line class="m" x1="44.375" y1="13" x2="44.375" y2="18"/><line class="m" x1="42.5" y1="13" x2="42.5" y2="18"/><line class="m" x1="40.625" y1="13" x2="40.625" y2="18"/><line class="m" x1="38.75" y1="13" x2="38.75" y2="18"/><line class="m" x1="36.875" y1="13" x2="36.875" y2="18"/><polyline class="h" points="65 18 65 23 35 23 35 18"/><line class="h" x1="63.125" y1="18" x2="63.125" y2="23"/><line class="h" x1="61.25" y1="18" x2="61.25" y2="23"/><line class="h" x1="59.375" y1="18" x2="59.375" y2="23"/><line class="h" x1="57.5" y1="18" x2="57.5" y2="23"/><line class="h" x1="55.625" y1="18" x2="55.625" y2="23"/><line class="h" x1="53.75" y1="18" x2="53.75" y2="23"/><line class="h" x1="51.875" y1="18" x2="51.875" y2="23"/><line class="h" x1="50" y1="18" x2="50" y2="23"/><line class="h" x1="48.125" y1="18" x2="48.125" y2="23"/><line class="h" x1="46.25" y1="18" x2="46.25" y2="23"/><line class="h" x1="44.375" y1="18" x2="44.375" y2="23"/><line class="h" x1="42.5" y1="18" x2="42.5" y2="23"/><line class="h" x1="40.625" y1="18" x2="40.625" y2="23"/><line class="h" x1="38.75" y1="18" x2="38.75" y2="23"/><line class="h" x1="36.875" y1="18" x2="36.875" y2="23"/><path class="s" d="m44,16h2v58.5c0,.27596-.22404.5-.5.5h-1c-.27596,0-.5-.22404-.5-.5V16h0Z"/><path class="y" d="m44.5,15h1c.27596,0,.5.22404.5.5v.5h-2v-.5c0-.27596.22404-.5.5-.5Z"/><circle class="t" cx="48" cy="85" r="1"/><circle class="x" cx="49" cy="85" r="1"/><line class="g" x1="48" y1="90" x2="52" y2="90"/><rect class="s" x="55.25" y="71.5" width="2.5" height="5" rx="1.25" ry="1.25"/></svg>