<?xml version="1.0" encoding="UTF-8"?><svg id="Layer_1" xmlns="http://www.w3.org/2000/svg" viewBox="0 0 100 100"><defs><style>.cls-1{fill:#adadad;}.cls-2{fill:#999;}.cls-3{fill:#b3b3b3;}.cls-4{fill:none;stroke:gray;stroke-linecap:round;stroke-miterlimit:10;stroke-width:.75px;}</style></defs><rect class="cls-1" x="48.5" y="59.5" width="3" height="1"/><rect class="cls-1" x="48.5" y="39.5" width="3" height="1"/><g><path class="cls-4" d="m61.00002,54.74996c2.73624,5.31477,5.55697,11.66557,8,19,2.8799,8.64602,4.53568,16.55962,5.5,23.25"/><polygon class="cls-2" points="62.56252 56.20629 61.00002 53.49996 61.24921 51.43159 60.52005 50.16864 58.35498 51.41864 61.47998 56.83129 62.56252 56.20629"/></g><g><path class="cls-4" d="m39,54.74996c-2.73624,5.31477-5.55697,11.66557-8,19-2.8799,8.64602-4.53568,16.55962-5.5,23.25"/><polygon class="cls-2" points="37.4375 56.20629 39 53.49996 38.7508 51.43159 39.47997 50.16864 41.64503 51.41864 38.52003 56.83129 37.4375 56.20629"/></g><circle class="cls-3" cx="50" cy="50" r="10"/><line class="cls-4" x1="50" y1="56.5" x2="50" y2="97"/><rect class="cls-2" x="49.25" y="50.5" width="1.5" height="6.5"/><rect class="cls-1" x="39" y="49" width="22" height="2" rx="1" ry="1"/></svg>