<?xml version="1.0" encoding="UTF-8"?><svg id="a" xmlns="http://www.w3.org/2000/svg" viewBox="0 0 100 100"><defs><style>.b{fill:#f15a29;}</style></defs><path class="b" d="m50.00001,89.84615c3.40247,0,8.60333.10601,14.64835,1.68132,6.47097,1.68631,9.47909,3.95719,11.86813,2.37363,1.9191-1.27206,2.00881-5.04118,2.10989-12.52747.08191-6.06618.12286-9.09927-.92308-11.60439-2.54793-6.10251-7.57502-4.79668-10.81319-10.02198-5.07615-8.19118,1.39088-14.47413-1.18681-33.62638-.06631-.49268-.88969-6.2495-4.14693-12.76493-2.58373-5.16822-4.79032-6.99614-6.92999-7.93836-1.79914-.79227-3.48869-.92308-4.62637-.92308s-2.82723.1308-4.62637.92308c-2.13967.94223-4.34626,2.77014-6.92999,7.93836-3.25724,6.51543-4.08062,12.27225-4.14693,12.76493-2.57769,19.15224,3.88934,25.4352-1.18681,33.62638-3.23817,5.2253-8.26526,3.91947-10.81319,10.02198-1.04594,2.50512-1.00499,5.53821-.92308,11.60439.10108,7.4863.19079,11.25541,2.10989,12.52747,2.38905,1.58356,5.39717-.68732,11.86813-2.37363,6.04502-1.57531,11.24588-1.68132,14.64835-1.68132Z"/></svg>